<svg width="30" height="31" viewBox="0 0 30 31" fill="none" xmlns="http://www.w3.org/2000/svg">
<mask id="mask0_1952_14809" style="mask-type:luminance" maskUnits="userSpaceOnUse" x="5" y="2" width="21" height="26">
<path d="M25.8333 2.5H5V27.8472H25.8333V2.5Z" fill="white"/>
</mask>
<g mask="url(#mask0_1952_14809)">
<path d="M9.34125 16.6542C9.21579 16.231 9.08848 15.7958 8.95931 15.3486C8.83014 14.9014 8.70283 14.4623 8.57736 14.0312H9.6475L10.3767 16.6542H11.8232C11.9563 16.2229 12.0896 15.7858 12.2232 15.3427C12.3568 14.8997 12.49 14.4625 12.6229 14.0312H13.5871L14.3749 16.6542H15.8447C15.97 16.2229 16.0973 15.7858 16.2267 15.3427C16.3561 14.8997 16.4796 14.4625 16.5972 14.0312H17.5263L16.7718 16.6542H18.0656V17.5285H16.5031C16.3619 18.0076 16.2168 18.4947 16.068 18.9896C15.9191 19.4845 15.7781 19.9715 15.6447 20.4507H14.7489L13.8083 17.5285H12.3274C12.1704 18.0076 12.0136 18.4947 11.8569 18.9896C11.7002 19.4845 11.5394 19.9715 11.3746 20.4507H10.4805L9.61035 17.5285H8.04785V16.6542H9.34125ZM11.0815 19.2049L11.552 17.5281H10.6097L11.0815 19.2049ZM12.634 16.6542H13.5277L13.0808 15.0253L12.634 16.6542ZM15.1506 19.2049L15.6211 17.5281H14.6433L15.1506 19.2049Z" fill="#0B0B0B"/>
<path d="M10.8139 26.683H6.68964C6.55169 26.6816 6.41992 26.6256 6.32325 26.5271C6.22658 26.4287 6.17291 26.2959 6.17402 26.158V13.5566C6.16393 12.315 6.64686 11.1201 7.51683 10.2342C8.3868 9.34828 9.57271 8.84372 10.8143 8.83125H12.8705C12.9329 8.82507 12.9959 8.83128 13.0559 8.84951C13.1159 8.86773 13.1716 8.89763 13.22 8.93747C13.2684 8.97731 13.3085 9.02632 13.3379 9.08168C13.3673 9.13704 13.3855 9.19767 13.3914 9.26007C13.3945 9.29205 13.3945 9.32427 13.3914 9.35625V10.4063C13.3914 10.543 13.4457 10.6742 13.5424 10.7709C13.6391 10.8676 13.7703 10.9219 13.907 10.9219C14.0438 10.9219 14.1749 10.8676 14.2716 10.7709C14.3683 10.6742 14.4226 10.543 14.4226 10.4063V9.35625C14.4377 8.95412 14.2926 8.56246 14.0192 8.26719C13.7458 7.97192 13.3664 7.79715 12.9643 7.78125C12.9349 7.78125 12.9056 7.78125 12.8764 7.78125H10.8139C9.29652 7.79656 7.84715 8.41327 6.78392 9.49603C5.72068 10.5788 5.13046 12.0391 5.14277 13.5566V26.158C5.13944 26.5719 5.30044 26.9701 5.59045 27.2654C5.88046 27.5607 6.27578 27.7289 6.68964 27.733H10.8139C10.9532 27.733 11.0867 27.6777 11.1852 27.5792C11.2836 27.4808 11.3389 27.3472 11.3389 27.208C11.3389 27.0687 11.2836 26.9352 11.1852 26.8368C11.0867 26.7383 10.9532 26.683 10.8139 26.683Z" fill="#0B0B0B"/>
<path d="M11.3291 6.73472C11.4671 6.73334 11.5988 6.67729 11.6955 6.57886C11.7922 6.48043 11.8459 6.34767 11.8447 6.20972V3.62881C12.4559 3.71319 13.3913 3.95173 13.3913 4.63576V6.21076C13.3913 6.34751 13.4456 6.47866 13.5423 6.57536C13.639 6.67206 13.7701 6.72638 13.9069 6.72638C14.0437 6.72638 14.1748 6.67206 14.2715 6.57536C14.3682 6.47866 14.4225 6.34751 14.4225 6.21076V4.63437C14.4225 3.94722 15.3576 3.70937 15.9694 3.62743V6.00902C15.4907 6.71236 15.3091 7.5763 15.4642 8.41284C15.4864 8.53087 15.5489 8.63752 15.6411 8.71453C15.7332 8.79155 15.8493 8.83416 15.9694 8.83506H17.0006C17.9991 8.83632 18.9704 9.16046 19.7696 9.75908C20.5687 10.3577 21.1528 11.1987 21.4347 12.1566C21.4537 12.2221 21.4857 12.2832 21.5286 12.3362C21.5715 12.3892 21.6245 12.4332 21.6846 12.4655C21.7447 12.4978 21.8106 12.5179 21.8785 12.5244C21.9465 12.531 22.015 12.524 22.0802 12.5038C22.2117 12.4607 22.321 12.3676 22.3844 12.2447C22.4479 12.1217 22.4605 11.9787 22.4194 11.8465C22.0752 10.6755 21.3615 9.64715 20.3848 8.91509C19.4081 8.18303 18.2209 7.78651 17.0003 7.78472H16.4447C16.4225 7.34649 16.5676 6.91618 16.8506 6.5809C16.9476 6.48171 17.0019 6.34845 17.0017 6.20972V3.05902C17.0022 2.9906 16.9893 2.92273 16.9636 2.85931C16.9379 2.79589 16.9 2.73815 16.852 2.68939C16.804 2.64064 16.7468 2.60182 16.6838 2.57516C16.6208 2.5485 16.5531 2.53452 16.4847 2.53402C15.551 2.49877 14.6358 2.80115 13.9069 3.38576C13.178 2.80112 12.2628 2.49874 11.3291 2.53402C11.1912 2.5354 11.0594 2.59145 10.9627 2.68988C10.8661 2.78831 10.8124 2.92107 10.8135 3.05902V6.20937C10.8123 6.34739 10.8659 6.48024 10.9626 6.57874C11.0593 6.67724 11.1911 6.73334 11.3291 6.73472Z" fill="#0B0B0B"/>
<path d="M25.7662 15.612C25.7674 15.4805 25.7427 15.35 25.6934 15.2281C25.6442 15.1061 25.5714 14.9951 25.4793 14.9012C25.3871 14.8074 25.2774 14.7326 25.1564 14.6812C25.0353 14.6298 24.9053 14.6027 24.7738 14.6016H19.8117C19.6802 14.6027 19.5502 14.6298 19.4291 14.6812C19.3081 14.7326 19.1984 14.8074 19.1062 14.9012C19.0141 14.9951 18.9413 15.1061 18.8921 15.2281C18.8428 15.35 18.8181 15.4805 18.8193 15.612V16.6224C18.8205 16.8001 18.8684 16.9743 18.9582 17.1276C18.8684 17.2809 18.8205 17.4551 18.8193 17.6328V18.6432H18.3231C18.1891 18.6432 18.0606 18.6965 17.9659 18.7912C17.8711 18.8859 17.8179 19.0144 17.8179 19.1484C17.8179 19.2824 17.8711 19.4109 17.9659 19.5057C18.0606 19.6004 18.1891 19.6536 18.3231 19.6536H18.8193V20.6641H17.3311C17.1971 20.6641 17.0686 20.7173 16.9739 20.812C16.8791 20.9068 16.8259 21.0353 16.8259 21.1693C16.8259 21.3033 16.8791 21.4318 16.9739 21.5265C17.0686 21.6213 17.1971 21.6745 17.3311 21.6745H18.8193V22.6849H13.8596C13.7281 22.6861 13.5981 22.7132 13.4771 22.7646C13.356 22.816 13.2463 22.8907 13.1541 22.9846C13.062 23.0784 12.9892 23.1895 12.94 23.3114C12.8908 23.4334 12.866 23.5638 12.8672 23.6953V24.7057C12.8684 24.8834 12.9163 25.0576 13.0061 25.2109C12.9163 25.3642 12.8684 25.5385 12.8672 25.7161V26.7266C12.866 26.8581 12.8908 26.9885 12.94 27.1105C12.9892 27.2324 13.062 27.3435 13.1541 27.4373C13.2463 27.5311 13.356 27.6059 13.4771 27.6573C13.5981 27.7087 13.7281 27.7358 13.8596 27.737H18.8207C18.9956 27.7363 19.1671 27.6883 19.3169 27.5981C19.4667 27.6883 19.6382 27.7363 19.8131 27.737H24.7742C24.9057 27.7358 25.0357 27.7087 25.1567 27.6573C25.2777 27.6059 25.3875 27.5311 25.4796 27.4373C25.5718 27.3435 25.6445 27.2324 25.6938 27.1105C25.743 26.9885 25.7677 26.8581 25.7665 26.7266V25.7161C25.7653 25.5385 25.7174 25.3643 25.6276 25.2109C25.7174 25.0576 25.7653 24.8834 25.7665 24.7057V23.6953C25.7653 23.5176 25.7174 23.3434 25.6276 23.1901C25.7174 23.0368 25.7653 22.8626 25.7665 22.6849V21.6745C25.7653 21.4968 25.7174 21.3226 25.6276 21.1693C25.7174 21.016 25.7653 20.8417 25.7665 20.6641V19.6536C25.7653 19.476 25.7174 19.3018 25.6276 19.1484C25.7174 18.9951 25.7653 18.8209 25.7665 18.6432V17.6328C25.7653 17.4551 25.7174 17.2809 25.6276 17.1276C25.7174 16.9743 25.7653 16.8001 25.7665 16.6224L25.7662 15.612ZM19.8127 15.612H24.7738V16.6224H19.8117L19.8127 15.612ZM24.7738 18.6436H19.8117V17.6332H24.7728L24.7738 18.6436ZM24.7738 20.6644H19.8117V19.654H24.7728L24.7738 20.6644ZM24.7738 22.6856H19.8117V21.6752H24.7728L24.7738 22.6856ZM24.7738 24.7064H19.8117V23.696H24.7728L24.7738 24.7064ZM18.8204 24.7064H13.8596V23.696H18.8207L18.8204 24.7064ZM13.8592 25.7168H18.8204V26.7273H13.8596L13.8592 25.7168ZM24.7738 26.7273H19.8117V25.7161H24.7728L24.7738 26.7273Z" fill="#0B0B0B"/>
</g>
</svg>
