<svg width="31" height="31" viewBox="0 0 31 31" fill="none" xmlns="http://www.w3.org/2000/svg">
<path d="M8.36875 25.6809H23.4646C24.2172 25.6882 24.942 25.3966 25.4798 24.8701C26.0177 24.3436 26.3246 23.6252 26.3333 22.8726V8.87776C26.3246 8.12516 26.0177 7.40675 25.4798 6.88023C24.942 6.35372 24.2172 6.06211 23.4646 6.06943H22.3271V5.28471C22.3227 5.0751 22.2364 4.87555 22.0866 4.72885C21.9368 4.58216 21.7355 4.5 21.5259 4.5C21.3162 4.5 21.1149 4.58216 20.9651 4.72885C20.8153 4.87555 20.729 5.0751 20.7247 5.28471V6.06908H11.109V5.28471C11.1047 5.0751 11.0183 4.87555 10.8686 4.72885C10.7188 4.58216 10.5175 4.5 10.3078 4.5C10.0982 4.5 9.89686 4.58216 9.74707 4.72885C9.59729 4.87555 9.51096 5.0751 9.5066 5.28471V6.06908H8.36875C7.61613 6.06177 6.89135 6.35337 6.35351 6.87989C5.81566 7.4064 5.5087 8.12481 5.5 8.87742V22.8726C5.5087 23.6252 5.81566 24.3436 6.35351 24.8701C6.89135 25.3966 7.61613 25.6882 8.36875 25.6809ZM7.10139 8.87776C7.1056 8.54573 7.24117 8.22889 7.47843 7.99658C7.71569 7.76427 8.03532 7.6354 8.36736 7.63818H9.50521V8.42394C9.50957 8.63355 9.5959 8.8331 9.74568 8.9798C9.89547 9.12649 10.0968 9.20865 10.3064 9.20865C10.5161 9.20865 10.7174 9.12649 10.8672 8.9798C11.0169 8.8331 11.1033 8.63355 11.1076 8.42394V7.63818H20.7243V8.42394C20.7287 8.63355 20.815 8.8331 20.9648 8.9798C21.1146 9.12649 21.3159 9.20865 21.5255 9.20865C21.7352 9.20865 21.9365 9.12649 22.0863 8.9798C22.236 8.8331 22.3224 8.63355 22.3267 8.42394V7.63818H23.4646C23.7966 7.6354 24.1163 7.76427 24.3535 7.99658C24.5908 8.22889 24.7263 8.54573 24.7306 8.87776V22.8726C24.7263 23.2046 24.5908 23.5214 24.3535 23.7537C24.1163 23.9861 23.7966 24.1149 23.4646 24.1121H8.36875C8.03671 24.1149 7.71708 23.9861 7.47982 23.7537C7.24256 23.5214 7.10699 23.2046 7.10278 22.8726L7.10139 8.87776Z" fill="#0B0B0B" stroke="#ECF5FE" stroke-width="0.5"/>
<path d="M11.3096 13.549C11.8625 13.549 12.3107 13.1008 12.3107 12.5479C12.3107 11.9951 11.8625 11.5469 11.3096 11.5469C10.7568 11.5469 10.3086 11.9951 10.3086 12.5479C10.3086 13.1008 10.7568 13.549 11.3096 13.549Z" fill="#0B0B0B" stroke="#ECF5FE" stroke-width="0.5"/>
<path d="M15.7169 13.549C16.2697 13.549 16.7179 13.1008 16.7179 12.5479C16.7179 11.9951 16.2697 11.5469 15.7169 11.5469C15.164 11.5469 14.7158 11.9951 14.7158 12.5479C14.7158 13.1008 15.164 13.549 15.7169 13.549Z" fill="#0B0B0B" stroke="#ECF5FE" stroke-width="0.5"/>
<path d="M20.1241 13.549C20.6769 13.549 21.1251 13.1008 21.1251 12.5479C21.1251 11.9951 20.6769 11.5469 20.1241 11.5469C19.5712 11.5469 19.123 11.9951 19.123 12.5479C19.123 13.1008 19.5712 13.549 20.1241 13.549Z" fill="#0B0B0B" stroke="#ECF5FE" stroke-width="0.5"/>
<path d="M11.3096 17.463C11.8625 17.463 12.3107 17.0148 12.3107 16.462C12.3107 15.9091 11.8625 15.4609 11.3096 15.4609C10.7568 15.4609 10.3086 15.9091 10.3086 16.462C10.3086 17.0148 10.7568 17.463 11.3096 17.463Z" fill="#0B0B0B" stroke="#ECF5FE" stroke-width="0.5"/>
<path d="M15.7169 17.463C16.2697 17.463 16.7179 17.0148 16.7179 16.462C16.7179 15.9091 16.2697 15.4609 15.7169 15.4609C15.164 15.4609 14.7158 15.9091 14.7158 16.462C14.7158 17.0148 15.164 17.463 15.7169 17.463Z" fill="#0B0B0B" stroke="#ECF5FE" stroke-width="0.5"/>
<path d="M20.1241 17.463C20.6769 17.463 21.1251 17.0148 21.1251 16.462C21.1251 15.9091 20.6769 15.4609 20.1241 15.4609C19.5712 15.4609 19.123 15.9091 19.123 16.462C19.123 17.0148 19.5712 17.463 20.1241 17.463Z" fill="#0B0B0B" stroke="#ECF5FE" stroke-width="0.5"/>
<path d="M11.3096 21.3771C11.8625 21.3771 12.3107 20.9289 12.3107 20.376C12.3107 19.8232 11.8625 19.375 11.3096 19.375C10.7568 19.375 10.3086 19.8232 10.3086 20.376C10.3086 20.9289 10.7568 21.3771 11.3096 21.3771Z" fill="#0B0B0B" stroke="#ECF5FE" stroke-width="0.5"/>
<path d="M15.7169 21.3771C16.2697 21.3771 16.7179 20.9289 16.7179 20.376C16.7179 19.8232 16.2697 19.375 15.7169 19.375C15.164 19.375 14.7158 19.8232 14.7158 20.376C14.7158 20.9289 15.164 21.3771 15.7169 21.3771Z" fill="#0B0B0B" stroke="#ECF5FE" stroke-width="0.5"/>
<path d="M20.1241 21.3771C20.6769 21.3771 21.1251 20.9289 21.1251 20.376C21.1251 19.8232 20.6769 19.375 20.1241 19.375C19.5712 19.375 19.123 19.8232 19.123 20.376C19.123 20.9289 19.5712 21.3771 20.1241 21.3771Z" fill="#0B0B0B" stroke="#ECF5FE" stroke-width="0.5"/>
</svg>
