<svg width="31" height="31" viewBox="0 0 31 31" fill="none" xmlns="http://www.w3.org/2000/svg">
<mask id="mask0_1952_14765" style="mask-type:luminance" maskUnits="userSpaceOnUse" x="5" y="3" width="22" height="25">
<path d="M26.3333 3.5H5.5V27.1111H26.3333V3.5Z" fill="white"/>
</mask>
<g mask="url(#mask0_1952_14765)">
<path d="M26.1128 11.1216L21.1996 3.25492C21.1525 3.18822 21.09 3.13379 21.0175 3.09623C20.945 3.05867 20.8646 3.03906 20.7829 3.03906C20.7012 3.03906 20.6208 3.05867 20.5483 3.09623C20.4758 3.13379 20.4133 3.18822 20.3662 3.25492L15.453 11.1216C15.4067 11.196 15.3811 11.2815 15.3788 11.3691C15.3766 11.4568 15.3978 11.5434 15.4403 11.6201C15.4828 11.6968 15.545 11.7607 15.6205 11.8053C15.696 11.8499 15.782 11.8735 15.8697 11.8737H18.3263V15.807C18.3255 16.9729 17.979 18.1124 17.3307 19.0814C16.6823 20.0504 15.7612 20.8055 14.6838 21.2511C13.6064 21.6967 12.4211 21.8128 11.2777 21.5849C10.1343 21.3569 9.08415 20.7951 8.26002 19.9703C7.43589 19.1456 6.87478 18.0951 6.64762 16.9515C6.42047 15.808 6.53747 14.6227 6.98383 13.5456C7.4302 12.4686 8.18588 11.548 9.15536 10.9003C10.1248 10.2527 11.2646 9.907 12.4305 9.907C12.5609 9.907 12.6859 9.8552 12.7781 9.763C12.8703 9.67079 12.9221 9.54574 12.9221 9.41534C12.9221 9.28494 12.8703 9.15988 12.7781 9.06768C12.6859 8.97547 12.5609 8.92367 12.4305 8.92367C11.069 8.92278 9.73778 9.32569 8.6053 10.0814C7.47281 10.8372 6.5899 11.9118 6.06824 13.1694C5.54658 14.427 5.40961 15.8111 5.67465 17.1466C5.93969 18.482 6.59484 19.7089 7.55723 20.6719C8.51962 21.635 9.74601 22.291 11.0813 22.557C12.4165 22.823 13.8007 22.687 15.0587 22.1662C16.3166 21.6455 17.3919 20.7633 18.1485 19.6314C18.905 18.4994 19.3089 17.1685 19.3089 15.807V11.382C19.3089 11.2517 19.2572 11.1267 19.1651 11.0345C19.0729 10.9423 18.948 10.8904 18.8176 10.8903H16.7562L20.7839 4.44346L24.8117 10.8903H22.7482C22.6178 10.8904 22.4929 10.9423 22.4007 11.0345C22.3086 11.1267 22.2569 11.2517 22.2569 11.382V24.6567C22.2567 24.9173 22.1531 25.1672 21.9689 25.3515C21.7847 25.5359 21.5348 25.6396 21.2742 25.64H20.2916C20.1603 25.6484 20.0287 25.6287 19.9056 25.5823C19.7826 25.5358 19.6708 25.4637 19.5778 25.3706C19.4848 25.2776 19.4127 25.1658 19.3664 25.0426C19.32 24.9195 19.3004 24.7879 19.3089 24.6567V21.215C19.3089 21.1505 19.2962 21.0866 19.2715 21.027C19.2469 20.9674 19.2107 20.9132 19.165 20.8676C19.1194 20.822 19.0653 20.7858 19.0056 20.7611C18.946 20.7364 18.8821 20.7237 18.8176 20.7237C18.7531 20.7237 18.6892 20.7364 18.6296 20.7611C18.57 20.7858 18.5158 20.822 18.4702 20.8676C18.4246 20.9132 18.3884 20.9674 18.3637 21.027C18.339 21.0866 18.3263 21.1505 18.3263 21.215V24.6567C18.3184 24.9169 18.3639 25.1761 18.4598 25.4182C18.5558 25.6602 18.7002 25.8801 18.8843 26.0643C19.0684 26.2485 19.2882 26.3931 19.5302 26.4893C19.7722 26.5854 20.0313 26.631 20.2916 26.6233H21.2742C21.7955 26.6226 22.2951 26.4151 22.6636 26.0464C23.032 25.6777 23.2391 25.1779 23.2395 24.6567V11.8737H25.6961C25.7839 11.8737 25.87 11.8503 25.9457 11.8057C26.0213 11.7612 26.0836 11.6972 26.1261 11.6205C26.1687 11.5437 26.1898 11.4569 26.1875 11.3692C26.1851 11.2815 26.1593 11.196 26.1128 11.1216Z" fill="#0B0B0B"/>
<path d="M8.90647 15.8153C8.78679 15.419 8.66538 15.0116 8.54223 14.5931C8.41908 14.1745 8.29767 13.7633 8.17799 13.3594H9.19779L9.89223 15.8153H11.2707C11.3976 15.4116 11.5249 15.0023 11.6526 14.5875C11.7804 14.1727 11.9077 13.7634 12.0346 13.3597H12.9537L13.7044 15.8156H15.1051C15.2245 15.4119 15.3459 15.0027 15.4693 14.5878C15.5927 14.173 15.7104 13.7638 15.8224 13.3601H16.7079L15.9905 15.816H17.2231V16.6344H15.7315C15.597 17.083 15.4588 17.539 15.3169 18.0024C15.175 18.4659 15.0405 18.9219 14.9134 19.3705H14.0617L13.1651 16.6344H11.753C11.6035 17.083 11.454 17.539 11.3047 18.0024C11.1554 18.4659 11.0023 18.9219 10.8454 19.3705H9.99362L9.16445 16.6344H7.67383V15.816L8.90647 15.8153ZM10.5651 18.2038L11.0134 16.6337H10.1169L10.5651 18.2038ZM12.0443 15.8153H12.8947L12.469 14.2903L12.0443 15.8153ZM14.4426 18.2038L14.8908 16.6337H13.9606L14.4426 18.2038Z" fill="#0B0B0B"/>
</g>
</svg>
