<svg width="30" height="31" viewBox="0 0 30 31" fill="none" xmlns="http://www.w3.org/2000/svg">
<path d="M19.2463 25.3038V16.8743C19.2447 16.5994 19.1885 16.3275 19.0808 16.0745C18.9731 15.8215 18.8162 15.5925 18.6192 15.4007C18.2149 15.0059 17.6722 14.7849 17.1071 14.7851H13.905C13.3392 14.7832 12.7956 15.0044 12.3918 15.4007C12.1935 15.5915 12.0357 15.8203 11.928 16.0736C11.8202 16.3268 11.7647 16.5991 11.7647 16.8743V25.3038H9.63867V16.8743C9.64083 16.3257 9.7525 15.783 9.96715 15.2781C10.1818 14.7732 10.4951 14.3163 10.8887 13.934C11.6989 13.1531 12.7807 12.7174 13.906 12.7188H17.1036C18.2268 12.7161 19.3066 13.1522 20.113 13.934C20.5082 14.3152 20.8229 14.7719 21.0383 15.277C21.2537 15.782 21.3656 16.3252 21.3671 16.8743V25.3038H19.2463Z" fill="#0B0B0B" stroke="#ECF5FE"/>
<path d="M21.3263 24.2716H25.877V19.4389C25.8767 19.29 25.8466 19.1426 25.7885 19.0054C25.7303 18.8683 25.6453 18.7441 25.5385 18.6403C25.3162 18.4256 25.0198 18.3046 24.7107 18.3025H22.485C22.4616 18.301 22.4381 18.3037 22.4156 18.3105V16.2344H24.7107C25.58 16.2294 26.4164 16.5661 27.0399 17.1719C27.3422 17.4669 27.5827 17.8192 27.7473 18.2082C27.9119 18.5972 27.9973 19.0152 27.9985 19.4376V25.3018C27.9969 25.4394 27.9682 25.5753 27.914 25.7017C27.8597 25.8282 27.7811 25.9427 27.6826 26.0388C27.5841 26.1348 27.4676 26.2105 27.3398 26.2615C27.212 26.3124 27.0754 26.3377 26.9378 26.3358H20.2659C20.1282 26.3378 19.9915 26.3127 19.8636 26.2618C19.7357 26.2109 19.6191 26.1352 19.5204 26.0392C19.4218 25.9431 19.3431 25.8285 19.2888 25.702C19.2345 25.5755 19.2057 25.4395 19.2041 25.3018V22.2407H21.3263V24.2716Z" fill="#0B0B0B" stroke="#ECF5FE"/>
<path d="M5.12951 24.2701H9.6816V22.2392H11.8031V25.3004C11.8015 25.4379 11.7728 25.5737 11.7186 25.7001C11.6644 25.8266 11.5859 25.9411 11.4874 26.0371C11.389 26.1331 11.2726 26.2088 11.1448 26.2598C11.0171 26.3108 10.8806 26.3362 10.7431 26.3344H4.06076C3.78325 26.337 3.51598 26.2297 3.31725 26.036C3.11853 25.8423 3.00448 25.5778 3 25.3004V19.4375C3.00147 19.0141 3.08812 18.5953 3.25479 18.2061C3.42146 17.8169 3.66473 17.4651 3.97014 17.1719C4.59074 16.5689 5.42253 16.2324 6.28785 16.2344H8.56806V18.3139C8.55128 18.3073 8.53325 18.3046 8.51528 18.3059H6.28785C5.98111 18.3079 5.68716 18.4291 5.46806 18.6438C5.36096 18.7474 5.27579 18.8715 5.21764 19.0087C5.15948 19.1459 5.12951 19.2934 5.12951 19.4424V24.2701Z" fill="#0B0B0B" stroke="#ECF5FE"/>
<path d="M15.3216 5.50003C16.2969 5.49622 17.2347 5.87552 17.9331 6.55628C18.2755 6.8864 18.5479 7.28217 18.734 7.71995C18.9201 8.15772 19.016 8.62852 19.016 9.1042C19.016 9.57987 18.9201 10.0507 18.734 10.4884C18.5479 10.9262 18.2755 11.322 17.9331 11.6521C17.2327 12.3296 16.2964 12.7084 15.3219 12.7084C14.3475 12.7084 13.4112 12.3296 12.7108 11.6521C12.3684 11.322 12.096 10.9262 11.9099 10.4884C11.7238 10.0507 11.6279 9.57987 11.6279 9.1042C11.6279 8.62852 11.7238 8.15772 11.9099 7.71995C12.096 7.28217 12.3684 6.8864 12.7108 6.55628C13.409 5.87563 14.3465 5.49633 15.3216 5.50003ZM16.4351 8.02294C16.1352 7.73653 15.7364 7.57671 15.3216 7.57671C14.9068 7.57671 14.508 7.73653 14.2081 8.02294C14.063 8.16321 13.9476 8.33124 13.8688 8.51703C13.79 8.70282 13.7494 8.90256 13.7494 9.10437C13.7494 9.30618 13.79 9.50592 13.8688 9.69171C13.9476 9.87749 14.063 10.0455 14.2081 10.1858C14.508 10.4722 14.9068 10.632 15.3216 10.632C15.7364 10.632 16.1352 10.4722 16.4351 10.1858C16.5806 10.0457 16.6963 9.87776 16.7753 9.69195C16.8543 9.50613 16.895 9.30629 16.895 9.10437C16.895 8.90245 16.8543 8.70261 16.7753 8.51679C16.6963 8.33098 16.5806 8.16301 16.4351 8.02294Z" fill="#0B0B0B" stroke="#ECF5FE"/>
<path d="M23.9896 9.61042C24.8491 9.60798 25.6754 9.9417 26.2921 10.5403C26.5938 10.8301 26.8338 11.1778 26.9978 11.5627C27.1618 11.9475 27.2463 12.3615 27.2463 12.7799C27.2463 13.1982 27.1618 13.6122 26.9978 13.9971C26.8338 14.3819 26.5938 14.7297 26.2921 15.0194C25.6759 15.6168 24.8515 15.9509 23.9933 15.9509C23.1351 15.9509 22.3106 15.6168 21.6945 15.0194C21.3928 14.7297 21.1527 14.3819 20.9887 13.9971C20.8248 13.6122 20.7402 13.1982 20.7402 12.7799C20.7402 12.3615 20.8248 11.9475 20.9887 11.5627C21.1527 11.1778 21.3928 10.8301 21.6945 10.5403C22.3088 9.94251 23.1325 9.60846 23.9896 9.60938V9.61042ZM24.7882 12.0063C24.6835 11.9017 24.5589 11.8193 24.4217 11.7639C24.2845 11.7085 24.1376 11.6812 23.9896 11.6837C23.8418 11.682 23.6951 11.7096 23.558 11.765C23.4209 11.8203 23.2962 11.9024 23.191 12.0063C23.086 12.107 23.0025 12.228 22.9454 12.3619C22.8884 12.4958 22.859 12.6399 22.8591 12.7854C22.862 13.0782 22.9809 13.3579 23.1896 13.5632C23.4047 13.7681 23.6912 13.8812 23.9882 13.8785C24.2856 13.8827 24.5726 13.7694 24.7869 13.5632C24.8916 13.4626 24.9748 13.3418 25.0317 13.2081C25.0885 13.0744 25.1176 12.9307 25.1174 12.7854C25.1193 12.6399 25.0908 12.4957 25.0339 12.3618C24.977 12.2279 24.8929 12.1073 24.7869 12.0076L24.7882 12.0063Z" fill="#0B0B0B" stroke="#ECF5FE"/>
<path d="M7.02533 9.61042C7.88453 9.60912 8.71043 9.94267 9.32776 10.5403C9.62747 10.8312 9.86574 11.1793 10.0284 11.564C10.1912 11.9487 10.275 12.3622 10.275 12.7799C10.275 13.1976 10.1912 13.611 10.0284 13.9957C9.86574 14.3804 9.62747 14.7285 9.32776 15.0194C8.71191 15.6171 7.88749 15.9514 7.02932 15.9514C6.17115 15.9514 5.34673 15.6171 4.73088 15.0194C4.42882 14.7299 4.18845 14.3822 4.02424 13.9973C3.86004 13.6124 3.77539 13.1983 3.77539 12.7799C3.77539 12.3614 3.86004 11.9473 4.02424 11.5624C4.18845 11.1775 4.42882 10.8299 4.73088 10.5403C5.34502 9.94262 6.16838 9.60857 7.02533 9.60938V9.61042ZM7.82394 12.0063C7.7193 11.9016 7.59466 11.8191 7.45745 11.7637C7.32024 11.7083 7.17328 11.6811 7.02533 11.6837C6.87749 11.6819 6.73077 11.7095 6.59368 11.7649C6.45659 11.8203 6.33186 11.9023 6.22672 12.0063C6.12181 12.1068 6.03834 12.2275 5.98135 12.3612C5.92436 12.4949 5.89503 12.6387 5.89512 12.784C5.89657 12.9291 5.9266 13.0725 5.98349 13.2059C6.04039 13.3394 6.12304 13.4603 6.22672 13.5618C6.4418 13.7667 6.72826 13.8798 7.02533 13.8771C7.32272 13.8816 7.60982 13.7682 7.82394 13.5618C7.92761 13.4603 8.01026 13.3394 8.06716 13.2059C8.12406 13.0725 8.15409 12.9291 8.15554 12.784C8.15563 12.6387 8.12629 12.4949 8.0693 12.3612C8.01231 12.2275 7.92885 12.1068 7.82394 12.0063Z" fill="#0B0B0B" stroke="#ECF5FE"/>
</svg>
