<svg width="28" height="28" viewBox="0 0 28 28" fill="none" xmlns="http://www.w3.org/2000/svg">
<path d="M13.0084 8C10.2483 8 8 10.2483 8 13.0084C8 15.7685 10.2483 18.0167 13.0084 18.0167C14.2086 18.0167 15.3109 17.5905 16.1748 16.883L19.1383 19.8465C19.1844 19.8945 19.2397 19.9327 19.3009 19.9591C19.362 19.9854 19.4278 19.9993 19.4944 20C19.5609 20.0006 19.627 19.988 19.6886 19.9628C19.7502 19.9376 19.8062 19.9004 19.8533 19.8533C19.9004 19.8062 19.9376 19.7502 19.9628 19.6886C19.988 19.627 20.0006 19.5609 20 19.4944C19.9993 19.4278 19.9854 19.362 19.9591 19.3009C19.9327 19.2397 19.8945 19.1844 19.8465 19.1383L16.883 16.1748C17.5906 15.3109 18.0168 14.2086 18.0168 13.0083C18.0168 10.2482 15.7685 8 13.0084 8ZM13.0084 9.00167C15.2271 9.00167 17.0151 10.7896 17.0151 13.0084C17.0151 15.2271 15.2271 17.0151 13.0084 17.0151C10.7896 17.0151 9.00167 15.2271 9.00167 13.0084C9.00167 10.7896 10.7896 9.00167 13.0084 9.00167Z" fill="currentColor" stroke="currentColor" stroke-width="0.2"/>
</svg>
