<svg viewBox="0 0 18 18" fill="none" xmlns="http://www.w3.org/2000/svg">
<mask id="mask0_173_34651" style="mask-type:luminance" maskUnits="userSpaceOnUse" x="2" y="3" width="13" height="13">
<path d="M14.9766 3.00391H2.97656V15.0039H14.9766V3.00391Z" fill="white"/>
</mask>
<g mask="url(#mask0_173_34651)">
<path d="M15.1657 8.87675V13.9265C15.1657 14.2613 15.0327 14.5823 14.796 14.819C14.5593 15.0558 14.2382 15.1887 13.9034 15.1887H4.22319C3.88842 15.1887 3.56736 15.0558 3.33064 14.819C3.09392 14.5823 2.96094 14.2613 2.96094 13.9265V4.247C2.96094 3.91223 3.09392 3.59117 3.33064 3.35445C3.56736 3.11774 3.88842 2.98475 4.22319 2.98475H9.27369C9.3584 2.98183 9.44283 2.99599 9.52195 3.02639C9.60107 3.0568 9.67327 3.10282 9.73422 3.16171C9.79518 3.2206 9.84366 3.29117 9.87677 3.36919C9.90988 3.44722 9.92695 3.53111 9.92695 3.61588C9.92695 3.70064 9.90988 3.78453 9.87677 3.86256C9.84366 3.94058 9.79518 4.01115 9.73422 4.07004C9.67327 4.12893 9.60107 4.17495 9.52195 4.20536C9.44283 4.23576 9.3584 4.24992 9.27369 4.247H4.64394C4.53247 4.2474 4.42568 4.29185 4.34686 4.37067C4.26804 4.44949 4.22358 4.55628 4.22319 4.66775V13.5057C4.22358 13.6172 4.26804 13.724 4.34686 13.8028C4.42568 13.8816 4.53247 13.9261 4.64394 13.9265H13.4819C13.5934 13.9261 13.7002 13.8816 13.779 13.8028C13.8578 13.724 13.9023 13.6172 13.9027 13.5057V8.87675C13.8998 8.79204 13.9139 8.70761 13.9443 8.62849C13.9747 8.54936 14.0208 8.47717 14.0796 8.41621C14.1385 8.35525 14.2091 8.30677 14.2871 8.27366C14.3652 8.24055 14.4491 8.22349 14.5338 8.22349C14.6186 8.22349 14.7025 8.24055 14.7805 8.27366C14.8585 8.30677 14.9291 8.35525 14.988 8.41621C15.0469 8.47717 15.0929 8.54936 15.1233 8.62849C15.1537 8.70761 15.1679 8.79204 15.1649 8.87675" fill="currentColor"/>
<path d="M15.1625 3.40512V6.35112C15.1655 6.43584 15.1513 6.52027 15.1209 6.59939C15.0905 6.67851 15.0445 6.7507 14.9856 6.81166C14.9267 6.87262 14.8561 6.9211 14.7781 6.95421C14.7001 6.98732 14.6162 7.00438 14.5314 7.00438C14.4466 7.00438 14.3628 6.98732 14.2847 6.95421C14.2067 6.9211 14.1361 6.87262 14.0772 6.81166C14.0183 6.7507 13.9723 6.67851 13.9419 6.59939C13.9115 6.52027 13.8974 6.43584 13.9003 6.35112V5.13912L10.1008 8.93488C9.98104 9.0463 9.82276 9.10693 9.65923 9.10399C9.4957 9.10105 9.33967 9.03478 9.22402 8.91913C9.10837 8.80348 9.0421 8.64746 9.03916 8.48393C9.03623 8.3204 9.09686 8.16211 9.20829 8.04238L13.004 4.24662H11.7958C11.6322 4.24098 11.4771 4.17202 11.3634 4.05428C11.2496 3.93653 11.186 3.77922 11.186 3.6155C11.186 3.45178 11.2496 3.29447 11.3634 3.17672C11.4771 3.05898 11.6322 2.99002 11.7958 2.98438L14.7418 2.98438C14.8532 2.98477 14.96 3.02923 15.0389 3.10805C15.1177 3.18687 15.1621 3.29366 15.1625 3.40512Z" fill="currentColor"/>
</g>
</svg>
