<svg viewBox="0 0 30 31" fill="none" xmlns="http://www.w3.org/2000/svg">
<mask id="mask0_1632_125404" style="mask-type:luminance" maskUnits="userSpaceOnUse" x="0" y="0" width="30" height="31">
<path d="M29.625 0.890625H0.458336V30.0573H29.625V0.890625Z" fill="white"/>
</mask>
<g mask="url(#mask0_1632_125404)">
<path d="M28.8879 27.1439L26.4118 15.272V3.6224C26.4119 2.84636 26.1038 2.10205 25.5552 1.55315C25.0066 1.00424 24.2625 0.695681 23.4865 0.695313H5.92223C5.53782 0.695267 5.15718 0.770947 4.80203 0.918031C4.44688 1.06511 4.12418 1.28072 3.85236 1.55253C3.58055 1.82435 3.36494 2.14704 3.21786 2.5022C3.07078 2.85735 2.9951 3.23799 2.99514 3.6224V15.272L0.519102 27.1439C0.447574 27.485 0.453097 27.8378 0.535269 28.1765C0.61744 28.5153 0.774187 28.8314 0.994075 29.1018C1.21396 29.3722 1.49144 29.5901 1.80628 29.7397C2.12111 29.8892 2.46535 29.9666 2.81389 29.9661H26.5931C26.9416 29.9666 27.2858 29.8892 27.6006 29.7397C27.9154 29.5902 28.1928 29.3723 28.4127 29.1019C28.6326 28.8315 28.7894 28.5155 28.8716 28.1768C28.9538 27.8381 28.9593 27.485 28.8879 27.1439ZM4.16598 3.6224C4.16598 3.15661 4.35101 2.7099 4.68037 2.38054C5.00973 2.05118 5.45644 1.86615 5.92223 1.86615H23.4865C23.9519 1.86661 24.3982 2.05184 24.7272 2.38115C25.0562 2.71046 25.241 3.15691 25.241 3.6224V14.7453H4.16459L4.16598 3.6224ZM27.4993 28.362C26.9958 28.9828 28.7521 28.7953 2.81181 28.7953C2.63553 28.7992 2.46066 28.7632 2.30025 28.69C2.13984 28.6168 1.99804 28.5083 1.88545 28.3726C1.77287 28.237 1.6924 28.0776 1.65006 27.9064C1.60773 27.7352 1.60462 27.5567 1.64098 27.3842L4.05278 15.9161H25.3524C27.9049 28.2099 27.9986 27.7533 27.5007 28.362" fill="currentColor"/>
</g>
<mask id="mask1_1632_125404" style="mask-type:luminance" maskUnits="userSpaceOnUse" x="0" y="0" width="30" height="31">
<path d="M29.625 0.890625H0.458336V30.0573H29.625V0.890625Z" fill="white"/>
</mask>
<g mask="url(#mask1_1632_125404)">
<path d="M6.50764 5.96771H11.191C11.3462 5.96771 11.4951 5.90603 11.6049 5.79624C11.7147 5.68646 11.7764 5.53755 11.7764 5.38229C11.7764 5.22703 11.7147 5.07813 11.6049 4.96834C11.4951 4.85855 11.3462 4.79688 11.191 4.79688H6.50764C6.35238 4.79688 6.20348 4.85855 6.09369 4.96834C5.9839 5.07813 5.92223 5.22703 5.92223 5.38229C5.92223 5.53755 5.9839 5.68646 6.09369 5.79624C6.20348 5.90603 6.35238 5.96771 6.50764 5.96771Z" fill="currentColor"/>
<path d="M15.2889 7.72656H6.50764C6.35238 7.72656 6.20348 7.78824 6.09369 7.89803C5.9839 8.00781 5.92223 8.15672 5.92223 8.31198C5.92223 8.46724 5.9839 8.61614 6.09369 8.72593C6.20348 8.83572 6.35238 8.8974 6.50764 8.8974H15.2889C15.4442 8.8974 15.5931 8.83572 15.7028 8.72593C15.8126 8.61614 15.8743 8.46724 15.8743 8.31198C15.8743 8.15672 15.8126 8.00781 15.7028 7.89803C15.5931 7.78824 15.4442 7.72656 15.2889 7.72656Z" fill="currentColor"/>
<path d="M9.43403 18.2578H5.92222C5.76696 18.2578 5.61806 18.3195 5.50827 18.4293C5.39848 18.5391 5.33681 18.688 5.33681 18.8432C5.33681 18.9985 5.39848 19.1474 5.50827 19.2572C5.61806 19.367 5.76696 19.4286 5.92222 19.4286H9.43403C9.58929 19.4286 9.7382 19.367 9.84798 19.2572C9.95777 19.1474 10.0194 18.9985 10.0194 18.8432C10.0194 18.688 9.95777 18.5391 9.84798 18.4293C9.7382 18.3195 9.58929 18.2578 9.43403 18.2578Z" fill="currentColor"/>
<path d="M9.43473 21.7734H5.33751C5.18225 21.7734 5.03334 21.8351 4.92356 21.9449C4.81377 22.0547 4.75209 22.2036 4.75209 22.3589C4.75209 22.5141 4.81377 22.663 4.92356 22.7728C5.03334 22.8826 5.18225 22.9443 5.33751 22.9443H9.43473C9.58999 22.9443 9.7389 22.8826 9.84868 22.7728C9.95847 22.663 10.0201 22.5141 10.0201 22.3589C10.0201 22.2036 9.95847 22.0547 9.84868 21.9449C9.7389 21.8351 9.58999 21.7734 9.43473 21.7734Z" fill="currentColor"/>
<path d="M9.43473 25.2891H4.75139C4.59613 25.2891 4.44723 25.3507 4.33744 25.4605C4.22765 25.5703 4.16598 25.7192 4.16598 25.8745C4.16598 26.0297 4.22765 26.1786 4.33744 26.2884C4.44723 26.3982 4.59613 26.4599 4.75139 26.4599H9.43473C9.58999 26.4599 9.73889 26.3982 9.84868 26.2884C9.95847 26.1786 10.0201 26.0297 10.0201 25.8745C10.0201 25.7192 9.95847 25.5703 9.84868 25.4605C9.73889 25.3507 9.58999 25.2891 9.43473 25.2891Z" fill="currentColor"/>
<path d="M12.3618 19.4286H23.4847C23.64 19.4286 23.7889 19.367 23.8987 19.2572C24.0085 19.1474 24.0701 18.9985 24.0701 18.8432C24.0701 18.688 24.0085 18.5391 23.8987 18.4293C23.7889 18.3195 23.64 18.2578 23.4847 18.2578H12.3618C12.2066 18.2578 12.0576 18.3195 11.9479 18.4293C11.8381 18.5391 11.7764 18.688 11.7764 18.8432C11.7764 18.9985 11.8381 19.1474 11.9479 19.2572C12.0576 19.367 12.2066 19.4286 12.3618 19.4286Z" fill="currentColor"/>
<path d="M12.3618 22.9443H24.0701C24.2254 22.9443 24.3743 22.8826 24.4841 22.7728C24.5939 22.663 24.6556 22.5141 24.6556 22.3589C24.6556 22.2036 24.5939 22.0547 24.4841 21.9449C24.3743 21.8351 24.2254 21.7734 24.0701 21.7734H12.3618C12.2066 21.7734 12.0576 21.8351 11.9479 21.9449C11.8381 22.0547 11.7764 22.2036 11.7764 22.3589C11.7764 22.5141 11.8381 22.663 11.9479 22.7728C12.0576 22.8826 12.2066 22.9443 12.3618 22.9443Z" fill="currentColor"/>
<path d="M24.6556 25.2891H12.3618C12.2066 25.2891 12.0576 25.3507 11.9479 25.4605C11.8381 25.5703 11.7764 25.7192 11.7764 25.8745C11.7764 26.0297 11.8381 26.1786 11.9479 26.2884C12.0576 26.3982 12.2066 26.4599 12.3618 26.4599H24.6556C24.8108 26.4599 24.9597 26.3982 25.0695 26.2884C25.1793 26.1786 25.241 26.0297 25.241 25.8745C25.241 25.7192 25.1793 25.5703 25.0695 25.4605C24.9597 25.3507 24.8108 25.2891 24.6556 25.2891Z" fill="currentColor"/>
<path d="M20.2635 7.13839H21.7271C21.8823 7.13839 22.0313 7.07671 22.141 6.96693C22.2508 6.85714 22.3125 6.70824 22.3125 6.55298C22.3125 6.39771 22.2508 6.24881 22.141 6.13902C22.0313 6.02924 21.8823 5.96756 21.7271 5.96756H21.1417C21.1415 5.88948 21.1258 5.81221 21.0954 5.74031C21.0649 5.6684 21.0204 5.6033 20.9645 5.54884C20.9085 5.49437 20.8423 5.45165 20.7696 5.42317C20.6969 5.39469 20.6192 5.38103 20.5412 5.383C20.4631 5.38497 20.3862 5.40252 20.315 5.43463C20.2439 5.46673 20.1798 5.51274 20.1267 5.56996C20.0736 5.62717 20.0324 5.69443 20.0056 5.76777C19.9789 5.84112 19.967 5.91908 19.9708 5.99707C19.6154 6.06955 19.2996 6.27144 19.0846 6.56358C18.8695 6.85572 18.7707 7.2173 18.8071 7.5782C18.8436 7.9391 19.0128 8.2736 19.2819 8.51683C19.551 8.76007 19.9008 8.89471 20.2635 8.89464H20.849C20.9266 8.89464 21.001 8.92548 21.0559 8.98037C21.1108 9.03527 21.1417 9.10972 21.1417 9.18735C21.1417 9.26498 21.1108 9.33943 21.0559 9.39433C21.001 9.44922 20.9266 9.48006 20.849 9.48006H19.3854C19.2302 9.48006 19.0813 9.54174 18.9715 9.65152C18.8617 9.76131 18.8 9.91021 18.8 10.0655C18.8 10.2207 18.8617 10.3696 18.9715 10.4794C19.0813 10.5892 19.2302 10.6509 19.3854 10.6509H19.9708C19.9708 10.8062 20.0325 10.9551 20.1423 11.0648C20.2521 11.1746 20.401 11.2363 20.5563 11.2363C20.7115 11.2363 20.8604 11.1746 20.9702 11.0648C21.08 10.9551 21.1417 10.8062 21.1417 10.6509C21.5298 10.6121 21.8867 10.4207 22.1337 10.1187C22.3807 9.81683 22.4977 9.42915 22.4589 9.041C22.42 8.65284 22.2286 8.296 21.9267 8.04898C21.6248 7.80196 21.2371 7.68499 20.849 7.72381H20.2635C20.1859 7.72381 20.1115 7.69297 20.0566 7.63808C20.0017 7.58318 19.9708 7.50873 19.9708 7.4311C19.9708 7.35347 20.0017 7.27902 20.0566 7.22412C20.1115 7.16923 20.1859 7.13839 20.2635 7.13839Z" fill="currentColor"/>
</g>
</svg>
