<svg viewBox="0 0 26 26" fill="none" xmlns="http://www.w3.org/2000/svg">
<mask id="mask0_2024_37643" style="mask-type:luminance" maskUnits="userSpaceOnUse" x="0" y="0" width="26" height="26">
<path d="M26 0H0V26H26V0Z" fill="white"/>
</mask>
<g mask="url(#mask0_2024_37643)">
<path d="M19.487 10.4838C19.487 5.54478 19.579 5.61678 19.262 5.39578C18.945 5.17478 19.103 5.22178 15.379 6.67178C15.3563 5.91612 15.1665 5.17487 14.8234 4.5012C14.4803 3.82753 13.9924 3.23814 13.3946 2.77532C12.7968 2.3125 12.104 1.98772 11.3659 1.82428C10.6278 1.66084 9.86263 1.66279 9.12535 1.82998C8.38806 1.99718 7.69692 2.32549 7.10151 2.79135C6.50609 3.2572 6.02116 3.84907 5.68151 4.52448C5.34185 5.19988 5.15589 5.94209 5.13696 6.69786C5.11803 7.45363 5.26661 8.20422 5.57203 8.89578H4.62903C4.29543 8.89794 3.9716 9.00857 3.70641 9.21097C3.44123 9.41338 3.2491 9.69657 3.15903 10.0178L2.20603 10.2538C1.8739 10.3371 1.57911 10.5289 1.36842 10.7989C1.15773 11.0688 1.04321 11.4014 1.04303 11.7438V14.2438C1.04299 14.5864 1.1574 14.9192 1.36811 15.1893C1.57882 15.4594 1.87373 15.6514 2.20603 15.7348L3.15903 15.9708C3.2491 16.292 3.44123 16.5752 3.70641 16.7776C3.9716 16.98 4.29543 17.0906 4.62903 17.0928V22.2158C4.62903 22.7595 4.84501 23.2809 5.22946 23.6654C5.61391 24.0498 6.13534 24.2658 6.67903 24.2658C7.22272 24.2658 7.74415 24.0498 8.1286 23.6654C8.51305 23.2809 8.72903 22.7595 8.72903 22.2158V17.0928H9.65603C19.443 20.8998 18.836 20.6788 18.975 20.6788C19.1108 20.6788 19.2411 20.6248 19.3371 20.5288C19.4331 20.4328 19.487 20.3026 19.487 20.1668V15.5048C20.0659 15.3869 20.5863 15.0726 20.96 14.6151C21.3338 14.1576 21.5379 13.585 21.5379 12.9943C21.5379 12.4035 21.3338 11.8309 20.96 11.3734C20.5863 10.9159 20.0659 10.6016 19.487 10.4838ZM10.265 2.74778C11.0759 2.74778 11.8686 2.98824 12.5429 3.43876C13.2171 3.88927 13.7426 4.5296 14.0529 5.27878C14.3633 6.02796 14.4444 6.85233 14.2862 7.64765C14.128 8.44298 13.7376 9.17352 13.1642 9.74692C12.5908 10.3203 11.8602 10.7108 11.0649 10.869C10.2696 11.0272 9.4452 10.946 8.69603 10.6357C7.94685 10.3254 7.30652 9.79986 6.856 9.12562C6.40549 8.45138 6.16503 7.65869 6.16503 6.84778C6.16503 5.7604 6.59699 4.71754 7.36589 3.94864C8.13479 3.17975 9.17764 2.74778 10.265 2.74778ZM2.06503 11.7478C2.06503 11.2658 2.50103 11.2358 3.09003 11.0918V14.9038C1.79003 14.5808 2.06503 14.9038 2.06503 11.7478ZM4.11403 15.5598V10.4328C4.11403 10.297 4.16797 10.1668 4.26399 10.0707C4.36001 9.97472 4.49024 9.92078 4.62603 9.92078H6.16603C6.91883 10.9243 8.01369 11.6167 9.24303 11.8668V16.0668H4.62903C4.49324 16.0668 4.36301 16.0128 4.26699 15.9168C4.17097 15.8208 4.11703 15.6906 4.11703 15.5548M7.70303 22.2148C7.69471 22.481 7.58313 22.7334 7.39191 22.9188C7.20068 23.1041 6.94483 23.2078 6.67853 23.2078C6.41223 23.2078 6.15638 23.1041 5.96515 22.9188C5.77393 22.7334 5.66235 22.481 5.65403 22.2148V17.0928H7.70303V22.2148ZM18.462 19.4148L10.262 16.2278V11.9698C11.4542 11.9694 12.609 11.5532 13.5273 10.793C14.4457 10.0327 15.0701 8.97596 15.293 7.80478L18.459 6.56978L18.462 19.4148ZM19.487 14.4398V11.5398C19.7873 11.6454 20.0474 11.8416 20.2314 12.1013C20.4154 12.361 20.5143 12.6715 20.5143 12.9898C20.5143 13.3081 20.4154 13.6185 20.2314 13.8783C20.0474 14.138 19.7873 14.3342 19.487 14.4398Z" fill="currentColor"/>
<path d="M25.1221 12.4844H23.5851C23.4491 12.4844 23.3188 12.5384 23.2227 12.6345C23.1265 12.7306 23.0726 12.8609 23.0726 12.9969C23.0726 13.1328 23.1265 13.2632 23.2227 13.3593C23.3188 13.4554 23.4491 13.5094 23.5851 13.5094H25.1221C25.258 13.5094 25.3884 13.4554 25.4845 13.3593C25.5806 13.2632 25.6346 13.1328 25.6346 12.9969C25.6346 12.8609 25.5806 12.7306 25.4845 12.6345C25.3884 12.5384 25.258 12.4844 25.1221 12.4844Z" fill="currentColor"/>
<path d="M22.56 10.9719C22.842 10.9719 22.8521 10.8899 24.0101 9.73694C24.1065 9.64053 24.1606 9.50978 24.1606 9.37344C24.1606 9.2371 24.1065 9.10635 24.0101 9.00994C23.9136 8.91353 23.7829 8.85938 23.6466 8.85938C23.5102 8.85937 23.3794 8.91353 23.283 9.00994L22.197 10.0959C22.1246 10.1676 22.0752 10.2591 22.0552 10.359C22.0351 10.4588 22.0452 10.5624 22.0843 10.6564C22.1234 10.7505 22.1896 10.8307 22.2745 10.8869C22.3594 10.9431 22.4592 10.9727 22.561 10.9719" fill="currentColor"/>
<path d="M22.899 15.1662C22.8026 15.0698 22.6719 15.0156 22.5356 15.0156C22.3992 15.0156 22.2684 15.0698 22.172 15.1662C22.0756 15.2626 22.0215 15.3934 22.0215 15.5297C22.0215 15.666 22.0756 15.7968 22.172 15.8932C23.355 17.0712 23.345 17.1282 23.622 17.1282C23.7239 17.129 23.8236 17.0994 23.9086 17.0432C23.9935 16.987 24.0597 16.9067 24.0988 16.8127C24.1379 16.7186 24.148 16.6151 24.1279 16.5152C24.1078 16.4154 24.0585 16.3238 23.9861 16.2522L22.899 15.1662Z" fill="currentColor"/>
<path d="M8.47555 4.37516L7.79602 5.05469L12.0549 9.31359L12.7345 8.63406L8.47555 4.37516Z" fill="currentColor"/>
<path d="M12.0549 4.37391L7.79602 8.63281L8.47555 9.31234L12.7345 5.05344L12.0549 4.37391Z" fill="currentColor"/>
</g>
</svg>
