<svg viewBox="0 0 26 26" fill="none" xmlns="http://www.w3.org/2000/svg">
<mask id="mask0_2024_37669" style="mask-type:luminance" maskUnits="userSpaceOnUse" x="0" y="0" width="26" height="26">
<path d="M26 0H0V26H26V0Z" fill="white"/>
</mask>
<g mask="url(#mask0_2024_37669)">
<path d="M18.292 0.546875H8.00899C7.32712 0.546875 6.67317 0.817747 6.19102 1.2999C5.70886 1.78206 5.43799 2.436 5.43799 3.11788L5.43799 22.6559C5.43799 23.3377 5.70886 23.9917 6.19102 24.4738C6.67317 24.956 7.32712 25.2269 8.00899 25.2269H18.292C18.9739 25.2269 19.6278 24.956 20.11 24.4738C20.5921 23.9917 20.863 23.3377 20.863 22.6559V3.11788C20.863 2.436 20.5921 1.78206 20.11 1.2999C19.6278 0.817747 18.9739 0.546875 18.292 0.546875ZM6.46599 4.65987H19.838V21.1139H6.46599V4.65987ZM8.00899 1.57487H18.292C18.4949 1.57448 18.6958 1.6141 18.8834 1.69147C19.0709 1.76883 19.2414 1.88243 19.385 2.02575C19.5286 2.16907 19.6425 2.3393 19.7202 2.5267C19.798 2.7141 19.838 2.91499 19.838 3.11788V3.63188H6.46599V3.11788C6.46599 2.70865 6.62855 2.31618 6.91792 2.02681C7.20729 1.73744 7.59976 1.57487 8.00899 1.57487ZM18.292 24.1989H8.00899C7.60011 24.1986 7.20805 24.0361 6.91892 23.7469C6.6298 23.4578 6.46725 23.0658 6.46699 22.6569V22.1429H19.838V22.6569C19.8377 23.0658 19.6752 23.4578 19.3861 23.7469C19.0969 24.0361 18.7049 24.1986 18.296 24.1989" fill="currentColor"/>
</g>
<mask id="mask1_2024_37669" style="mask-type:luminance" maskUnits="userSpaceOnUse" x="0" y="0" width="26" height="26">
<path d="M26 0H0V26H26V0Z" fill="white"/>
</mask>
<g mask="url(#mask1_2024_37669)">
<path d="M14.106 22.6993H12.919C12.8349 22.6896 12.7497 22.6977 12.669 22.7232C12.5883 22.7487 12.514 22.791 12.4508 22.8473C12.3876 22.9035 12.337 22.9726 12.3024 23.0498C12.2677 23.127 12.2498 23.2107 12.2498 23.2953C12.2498 23.3799 12.2677 23.4636 12.3024 23.5408C12.337 23.6181 12.3876 23.6871 12.4508 23.7433C12.514 23.7996 12.5883 23.8419 12.669 23.8674C12.7497 23.8929 12.8349 23.9011 12.919 23.8913H14.111C14.2572 23.8743 14.392 23.8043 14.4899 23.6944C14.5877 23.5845 14.6418 23.4425 14.6418 23.2953C14.6418 23.1482 14.5877 23.0061 14.4899 22.8962C14.392 22.7864 14.2572 22.7163 14.111 22.6993" fill="currentColor"/>
</g>
</svg>
