<svg viewBox="0 0 26 26" fill="none" xmlns="http://www.w3.org/2000/svg">
<mask id="mask0_2024_37628" style="mask-type:luminance" maskUnits="userSpaceOnUse" x="1" y="0" width="25" height="27">
<path d="M25.125 0.0078125H1.37305V26.2468H25.125V0.0078125Z" fill="white"/>
</mask>
<g mask="url(#mask0_2024_37628)">
<path d="M24.124 4.68957C12.537 -0.350428 13.345 -0.0884276 13.017 0.0595724L2.37305 4.68957C2.07923 4.81394 1.82811 5.02137 1.65048 5.2864C1.47284 5.55142 1.37642 5.86254 1.37305 6.18157L1.37305 8.79957C1.41072 12.5182 2.53241 16.1451 4.60065 19.2357C6.66889 22.3264 9.59384 24.7465 13.017 26.1996C13.0903 26.2313 13.1692 26.2476 13.249 26.2476C13.3289 26.2476 13.4078 26.2313 13.481 26.1996C16.9042 24.7465 19.8292 22.3264 21.8974 19.2357C23.9657 16.1451 25.0874 12.5182 25.125 8.79957V6.18157C25.1217 5.86254 25.0253 5.55142 24.8476 5.2864C24.67 5.02137 24.4189 4.81394 24.125 4.68957M23.994 8.79957C23.9596 12.2619 22.9276 15.641 21.0219 18.5319C19.1162 21.4228 16.4175 23.7031 13.249 25.0996C10.0806 23.7031 7.38187 21.4228 5.47616 18.5319C3.57045 15.641 2.53854 12.2619 2.50405 8.79957C2.50405 6.06657 2.39705 5.88057 2.83805 5.68957L13.249 1.15857L23.661 5.68457C24.108 5.88457 23.995 6.06157 23.995 8.79457" fill="currentColor"/>
</g>
<mask id="mask1_2024_37628" style="mask-type:luminance" maskUnits="userSpaceOnUse" x="0" y="0" width="25" height="26">
<path d="M24.266 0H0.625V25.886H24.266V0Z" fill="white"/>
</mask>
<g mask="url(#mask1_2024_37628)">
<path d="M22.552 6.62663C12.752 1.89363 13.352 2.07963 12.994 2.25463C3.26096 6.95463 3.63496 6.63263 3.63496 7.11363V9.59463C3.66147 12.5739 4.56635 15.4791 6.23629 17.9465C7.90622 20.4138 10.267 22.3337 13.023 23.4656C13.0945 23.4957 13.1713 23.5112 13.249 23.5112C13.3266 23.5112 13.4034 23.4957 13.475 23.4656C16.2305 22.3332 18.5908 20.413 20.2602 17.9454C21.9296 15.4779 22.8339 12.5727 22.86 9.59363C22.86 6.99363 22.96 6.82763 22.549 6.62563M21.729 9.59363C21.7074 12.3156 20.8938 14.9723 19.3874 17.2395C17.8809 19.5067 15.7469 21.2862 13.246 22.3606C10.745 21.2862 8.61098 19.5067 7.10456 17.2395C5.59814 14.9723 4.78449 12.3156 4.76296 9.59363V7.45163L13.246 3.35163L21.729 7.45163V9.59363Z" fill="currentColor"/>
<path d="M11.1059 11.9143C10.8536 11.6767 10.5385 11.5162 10.198 11.4519C9.85739 11.3876 9.50552 11.4221 9.18391 11.5513C8.86618 11.6747 8.59252 11.8901 8.39798 12.17C8.20344 12.4499 8.09687 12.7815 8.09192 13.1223C8.09192 14.0623 8.56691 14.2863 10.9199 16.5603C11.2433 16.8687 11.6731 17.0407 12.1199 17.0407C12.5668 17.0407 12.9965 16.8687 13.3199 16.5603C18.2289 11.8213 18.4099 11.8823 18.4099 10.9363C18.405 10.5955 18.2984 10.2639 18.1039 9.98401C17.9093 9.70413 17.6356 9.48871 17.3179 9.3653C16.9963 9.23609 16.6444 9.2016 16.3039 9.26592C15.9633 9.33024 15.6482 9.49068 15.3959 9.72829L12.1219 12.8983L11.1059 11.9143ZM16.1959 10.5043C16.2861 10.4187 16.399 10.3608 16.5211 10.3374C16.6432 10.314 16.7695 10.3261 16.8849 10.3723C16.9989 10.4166 17.0971 10.494 17.1667 10.5945C17.2364 10.695 17.2744 10.814 17.2759 10.9363C17.2759 11.2913 17.4959 10.9803 12.5199 15.7893C12.4122 15.8922 12.2689 15.9497 12.1199 15.9497C11.9709 15.9497 11.8276 15.8922 11.7199 15.7893L9.41292 13.5543C9.30871 13.4386 9.25357 13.2869 9.25917 13.1312C9.26477 12.9756 9.33066 12.8282 9.44292 12.7203C9.55827 12.6106 9.70984 12.5471 9.8689 12.5418C10.028 12.5364 10.1835 12.5896 10.3059 12.6913L11.7199 14.0573C11.8276 14.1602 11.9709 14.2177 12.1199 14.2177C12.2689 14.2177 12.4122 14.1602 12.5199 14.0573L16.1959 10.5043Z" fill="currentColor"/>
</g>
</svg>
