<svg viewBox="0 0 30 30" fill="none" xmlns="http://www.w3.org/2000/svg">
<mask id="mask0_1632_125479" style="mask-type:luminance" maskUnits="userSpaceOnUse" x="1" y="0" width="27" height="29">
<path d="M27.9024 0.335938H1.16632V28.4609H27.9024V0.335938Z" fill="white"/>
</mask>
<g mask="url(#mask0_1632_125479)">
<path d="M13.5965 11.6953H5.23299C5.07464 11.6953 4.92278 11.7582 4.81081 11.8702C4.69884 11.9822 4.63594 12.134 4.63594 12.2924C4.63594 12.4507 4.69884 12.6026 4.81081 12.7145C4.92278 12.8265 5.07464 12.8894 5.23299 12.8894H13.5965C13.7549 12.8894 13.9067 12.8265 14.0187 12.7145C14.1307 12.6026 14.1936 12.4507 14.1936 12.2924C14.1936 12.134 14.1307 11.9822 14.0187 11.8702C13.9067 11.7582 13.7549 11.6953 13.5965 11.6953Z" fill="currentColor"/>
<path d="M13.5965 14.6797H5.23299C5.07464 14.6797 4.92278 14.7426 4.81081 14.8546C4.69884 14.9665 4.63594 15.1184 4.63594 15.2767C4.63594 15.4351 4.69884 15.5869 4.81081 15.6989C4.92278 15.8109 5.07464 15.8738 5.23299 15.8738H13.5965C13.7549 15.8738 13.9067 15.8109 14.0187 15.6989C14.1307 15.5869 14.1936 15.4351 14.1936 15.2767C14.1936 15.1184 14.1307 14.9665 14.0187 14.8546C13.9067 14.7426 13.7549 14.6797 13.5965 14.6797Z" fill="currentColor"/>
<path d="M13.5965 8.71094H5.23299C5.07464 8.71094 4.92278 8.77384 4.81081 8.88581C4.69884 8.99778 4.63594 9.14964 4.63594 9.30799C4.63594 9.46633 4.69884 9.6182 4.81081 9.73016C4.92278 9.84213 5.07464 9.90504 5.23299 9.90504H13.5965C13.7549 9.90504 13.9067 9.84213 14.0187 9.73016C14.1307 9.6182 14.1936 9.46633 14.1936 9.30799C14.1936 9.14964 14.1307 8.99778 14.0187 8.88581C13.9067 8.77384 13.7549 8.71094 13.5965 8.71094Z" fill="currentColor"/>
</g>
<mask id="mask1_1632_125479" style="mask-type:luminance" maskUnits="userSpaceOnUse" x="1" y="0" width="27" height="29">
<path d="M27.9024 0.335938H1.16632V28.4609H27.9024V0.335938Z" fill="white"/>
</mask>
<g mask="url(#mask1_1632_125479)">
<path d="M5.23298 6.92066H10.0121C10.1705 6.92066 10.3224 6.85776 10.4343 6.74579C10.5463 6.63382 10.6092 6.48196 10.6092 6.32361C10.6092 6.16526 10.5463 6.0134 10.4343 5.90143C10.3224 5.78947 10.1705 5.72656 10.0121 5.72656H5.23298C5.07463 5.72656 4.92277 5.78947 4.81081 5.90143C4.69884 6.0134 4.63593 6.16526 4.63593 6.32361C4.63593 6.48196 4.69884 6.63382 4.81081 6.74579C4.92277 6.85776 5.07463 6.92066 5.23298 6.92066Z" fill="currentColor"/>
<path d="M27.933 20.4314C27.9326 18.9511 27.3823 17.5236 26.3891 16.426C25.3958 15.3283 24.0302 14.6387 22.5573 14.4908V6.10295H26.7392C26.8177 6.103 26.8953 6.08759 26.9678 6.05762C27.0403 6.02765 27.1061 5.9837 27.1616 5.92827C27.2171 5.87285 27.2612 5.80704 27.2912 5.7346C27.3213 5.66216 27.3368 5.58451 27.3368 5.50608V3.11892C27.3368 2.72669 27.2595 2.33831 27.1094 1.97595C26.9593 1.61359 26.7392 1.28436 26.4618 1.00706C26.1844 0.729756 25.8551 0.509823 25.4927 0.359818C25.1303 0.209813 24.7419 0.132676 24.3497 0.132813H4.63437C3.84241 0.132813 3.08288 0.44742 2.52287 1.00742C1.96287 1.56743 1.64826 2.32696 1.64826 3.11892L1.64826 28.1925C1.64831 28.271 1.6638 28.3486 1.69386 28.4211C1.72391 28.4935 1.76794 28.5593 1.82343 28.6147C1.87892 28.6702 1.94478 28.7141 2.01726 28.7441C2.08973 28.7741 2.1674 28.7895 2.24583 28.7894H21.9608C22.0392 28.7895 22.1169 28.7741 22.1893 28.7441C22.2618 28.7141 22.3277 28.6702 22.3832 28.6147C22.4387 28.5593 22.4827 28.4935 22.5127 28.4211C22.5428 28.3486 22.5583 28.271 22.5583 28.1925V26.4016C24.0362 26.253 25.4056 25.559 26.3994 24.4551C27.3931 23.3513 27.9399 21.9167 27.933 20.4314ZM26.142 3.11892V4.9099H22.5573V3.11892C22.5638 2.64793 22.7556 2.19844 23.0909 1.86769C23.4263 1.53694 23.8784 1.35151 24.3495 1.35151C24.8205 1.35151 25.2726 1.53694 25.608 1.86769C25.9434 2.19844 26.1355 2.64793 26.142 3.11892ZM2.84305 27.5981V3.11892C2.84301 2.88364 2.88931 2.65065 2.9793 2.43326C3.0693 2.21586 3.20124 2.01833 3.36758 1.85192C3.53391 1.68552 3.7314 1.55351 3.94876 1.46343C4.16612 1.37334 4.39909 1.32696 4.63437 1.32691H21.9608C21.1424 2.40747 21.3632 2.02517 21.3632 14.4911C19.8576 14.5991 18.4487 15.2733 17.4202 16.3782C16.3917 17.4831 15.8199 18.9365 15.8199 20.446C15.8199 21.9555 16.3917 23.409 17.4202 24.5138C18.4487 25.6187 19.8576 26.2929 21.3632 26.4009V27.595L2.84305 27.5981ZM21.9608 25.2075C21.0164 25.2069 20.0933 24.9264 19.3083 24.4013C18.5233 23.8762 17.9117 23.1302 17.5506 22.2575C17.1896 21.3848 17.0954 20.4247 17.2799 19.4985C17.4645 18.5723 17.9195 17.7216 18.5875 17.054C19.2554 16.3864 20.1064 15.9318 21.0327 15.7477C21.959 15.5636 22.919 15.6583 23.7915 16.0198C24.664 16.3813 25.4097 16.9933 25.9344 17.7786C26.4591 18.5638 26.7392 19.487 26.7392 20.4314C26.7383 21.6982 26.2345 22.9129 25.3385 23.8084C24.4425 24.704 23.2276 25.2072 21.9608 25.2075Z" fill="currentColor"/>
</g>
<mask id="mask2_1632_125479" style="mask-type:luminance" maskUnits="userSpaceOnUse" x="0" y="0" width="30" height="30">
<path d="M29.6389 0.335938H0.472221V29.5026H29.6389V0.335938Z" fill="white"/>
</mask>
<g mask="url(#mask2_1632_125479)">
<path d="M23.6344 17.893L21.9455 19.5819L20.2566 17.893C20.1423 17.796 19.9957 17.7455 19.846 17.7516C19.6962 17.7577 19.5542 17.8199 19.4482 17.9259C19.3422 18.0319 19.2799 18.1739 19.2738 18.3237C19.2677 18.4735 19.3182 18.6201 19.4153 18.7343L21.1042 20.4232L19.4153 22.1121C19.3178 22.2263 19.2668 22.3731 19.2727 22.5231C19.2786 22.6732 19.3408 22.8155 19.447 22.9217C19.5532 23.0279 19.6955 23.0902 19.8455 23.0962C19.9956 23.1021 20.1424 23.0513 20.2566 22.9538L21.9455 21.2649L23.6344 22.9538C23.7485 23.0518 23.8955 23.103 24.0458 23.0973C24.1962 23.0916 24.3388 23.0293 24.4452 22.9229C24.5516 22.8165 24.6139 22.6739 24.6196 22.5236C24.6253 22.3732 24.574 22.2263 24.476 22.1121L22.7872 20.4232L24.476 18.7343C24.5735 18.6201 24.6244 18.4733 24.6184 18.3233C24.6125 18.1732 24.5502 18.0309 24.444 17.9247C24.3378 17.8186 24.1954 17.7563 24.0454 17.7505C23.8953 17.7446 23.7486 17.7955 23.6344 17.893Z" fill="currentColor"/>
</g>
</svg>
