<svg viewBox="0 0 26 26" fill="none" xmlns="http://www.w3.org/2000/svg">
<mask id="mask0_2024_37654" style="mask-type:luminance" maskUnits="userSpaceOnUse" x="1" y="0" width="24" height="25">
<path d="M25 0H1V25H25V0Z" fill="white"/>
</mask>
<g mask="url(#mask0_2024_37654)">
<path d="M24.586 22.1749L22.121 19.7159C22.0243 19.62 21.8937 19.5662 21.7575 19.5662C21.6213 19.5662 21.4906 19.62 21.394 19.7159L21.028 20.0859L20.28 19.3329C20.754 18.7543 21.0964 18.0795 21.2835 17.3552C21.4706 16.631 21.4979 15.8747 21.3635 15.1389C21.229 14.4031 20.9361 13.7053 20.505 13.094C20.0739 12.4828 19.515 11.9726 18.867 11.5989V2.14794C18.8667 1.60114 18.6494 1.07682 18.2627 0.690176C17.8761 0.303533 17.3518 0.0862025 16.805 0.0859375L3.39898 0.0859375C2.85218 0.0862025 2.32786 0.303533 1.94121 0.690176C1.55457 1.07682 1.33724 1.60114 1.33698 2.14794V17.6169C1.33724 18.1637 1.55457 18.6881 1.94121 19.0747C2.32786 19.4613 2.85218 19.6787 3.39898 19.6789H12.613C13.5135 20.5952 14.7237 21.1422 16.0065 21.2128C17.2893 21.2835 18.5522 20.8727 19.548 20.0609L20.301 20.8089L19.935 21.1749C19.839 21.2716 19.7852 21.4023 19.7852 21.5384C19.7852 21.6746 19.839 21.8053 19.935 21.9019C20.8036 22.6733 21.6247 23.4965 22.394 24.3669C22.5362 24.5181 22.7073 24.6392 22.8971 24.723C23.087 24.8069 23.2918 24.8517 23.4993 24.8549C23.7068 24.8581 23.9129 24.8195 24.1052 24.7416C24.2976 24.6636 24.4723 24.5478 24.6191 24.4011C24.7659 24.2543 24.8817 24.0796 24.9596 23.8872C25.0376 23.6949 25.0761 23.4888 25.0729 23.2813C25.0697 23.0738 25.0249 22.869 24.9411 22.6791C24.8573 22.4892 24.7362 22.3181 24.585 22.1759M17.837 2.14794V3.17994H6.49298V1.11694H16.805C16.9405 1.11681 17.0746 1.14338 17.1998 1.19513C17.325 1.24688 17.4388 1.32281 17.5346 1.41856C17.6305 1.51431 17.7065 1.62801 17.7584 1.75316C17.8103 1.87831 17.837 2.01246 17.837 2.14794ZM2.36898 2.14794C2.36897 1.87467 2.47746 1.61259 2.67059 1.41926C2.86373 1.22594 3.12571 1.1172 3.39898 1.11694H5.46198V3.17994H2.36798L2.36898 2.14794ZM3.39998 18.6479C3.12654 18.6479 2.8643 18.5393 2.67095 18.346C2.4776 18.1526 2.36898 17.8904 2.36898 17.6169V4.21094H17.837V11.1509C17.191 10.9477 16.5113 10.8737 15.8368 10.9332C15.1622 10.9927 14.506 11.1845 13.9055 11.4976C13.3051 11.8107 12.7722 12.2391 12.3373 12.7582C11.9024 13.2772 11.5741 13.8769 11.371 14.5229C5.05498 14.5229 4.94598 14.3729 4.37098 14.9719C4.15357 15.1877 4.00511 15.4632 3.94442 15.7634C3.88373 16.0637 3.91353 16.3752 4.03006 16.6584C4.14658 16.9417 4.34458 17.184 4.59897 17.3547C4.85335 17.5253 5.15266 17.6166 5.45898 17.6169H11.368C11.4837 17.976 11.6376 18.3216 11.827 18.6479H3.39998ZM5.46198 16.5859C5.36044 16.5844 5.26161 16.553 5.17786 16.4956C5.09411 16.4381 5.02916 16.3573 4.99116 16.2631C4.95315 16.169 4.94377 16.0657 4.96419 15.9662C4.98462 15.8667 5.03394 15.7755 5.10598 15.7039C5.30598 15.5039 5.46198 15.5539 6.49298 15.5539V16.5859H5.46198ZM7.52397 15.5549H11.159C11.123 15.8977 11.123 16.2432 11.159 16.5859H7.52397V15.5549ZM12.165 16.0709C12.165 15.2551 12.4069 14.4576 12.8602 13.7792C13.3134 13.1009 13.9577 12.5721 14.7114 12.2599C15.4652 11.9477 16.2946 11.866 17.0947 12.0252C17.8949 12.1844 18.6299 12.5772 19.2068 13.1541C19.7837 13.731 20.1765 14.466 20.3357 15.2662C20.4949 16.0664 20.4132 16.8958 20.101 17.6495C19.7888 18.4033 19.2601 19.0475 18.5817 19.5007C17.9034 19.954 17.1058 20.1959 16.29 20.1959C15.196 20.1959 14.1467 19.7613 13.3732 18.9878C12.5996 18.2142 12.165 17.165 12.165 16.0709ZM23.127 23.6339L21.027 21.5409L21.759 20.8089L23.852 22.9089C23.935 23.0078 23.978 23.1342 23.9724 23.2632C23.9668 23.3922 23.9131 23.5144 23.8218 23.6057C23.7305 23.6971 23.6083 23.7508 23.4793 23.7564C23.3502 23.762 23.2238 23.719 23.125 23.6359" fill="currentColor"/>
</g>
<mask id="mask1_2024_37654" style="mask-type:luminance" maskUnits="userSpaceOnUse" x="0" y="0" width="26" height="26">
<path d="M26 0H0V26H26V0Z" fill="white"/>
</mask>
<g mask="url(#mask1_2024_37654)">
<path d="M4.43098 6.78931H12.165C12.2346 6.79238 12.3041 6.78132 12.3693 6.75679C12.4345 6.73227 12.4941 6.6948 12.5444 6.64663C12.5948 6.59846 12.6348 6.54059 12.6622 6.47651C12.6896 6.41244 12.7037 6.34349 12.7037 6.27382C12.7037 6.20414 12.6896 6.13518 12.6622 6.07111C12.6348 6.00704 12.5948 5.94918 12.5444 5.90101C12.4941 5.85283 12.4345 5.81535 12.3693 5.79083C12.3041 5.76631 12.2346 5.75525 12.165 5.75831H4.43098C4.36137 5.75525 4.29187 5.76631 4.22665 5.79083C4.16144 5.81535 4.10186 5.85283 4.05153 5.90101C4.00119 5.94918 3.96112 6.00704 3.93375 6.07111C3.90638 6.13518 3.89227 6.20414 3.89227 6.27382C3.89227 6.34349 3.90638 6.41244 3.93375 6.47651C3.96112 6.54059 4.00119 6.59846 4.05153 6.64663C4.10186 6.6948 4.16144 6.73227 4.22665 6.75679C4.29187 6.78132 4.36137 6.79238 4.43098 6.78931Z" fill="currentColor"/>
<path d="M4.43098 8.85181H12.165C12.2346 8.85488 12.3041 8.84382 12.3693 8.81929C12.4345 8.79477 12.4941 8.7573 12.5444 8.70913C12.5948 8.66096 12.6348 8.60309 12.6622 8.53901C12.6896 8.47494 12.7037 8.40599 12.7037 8.33632C12.7037 8.26664 12.6896 8.19768 12.6622 8.13361C12.6348 8.06954 12.5948 8.01168 12.5444 7.96351C12.4941 7.91533 12.4345 7.87785 12.3693 7.85333C12.3041 7.82881 12.2346 7.81775 12.165 7.82081H4.43098C4.36137 7.81775 4.29187 7.82881 4.22665 7.85333C4.16144 7.87785 4.10186 7.91533 4.05153 7.96351C4.00119 8.01168 3.96112 8.06954 3.93375 8.13361C3.90638 8.19768 3.89227 8.26664 3.89227 8.33632C3.89227 8.40599 3.90638 8.47494 3.93375 8.53901C3.96112 8.60309 4.00119 8.66096 4.05153 8.70913C4.10186 8.7573 4.16144 8.79477 4.22665 8.81929C4.29187 8.84382 4.36137 8.85488 4.43098 8.85181Z" fill="currentColor"/>
<path d="M4.43098 10.9143H9.58698C9.65659 10.9174 9.72609 10.9063 9.79131 10.8818C9.85652 10.8573 9.9161 10.8198 9.96644 10.7716C10.0168 10.7234 10.0568 10.6656 10.0842 10.6015C10.1116 10.5374 10.1257 10.4685 10.1257 10.3988C10.1257 10.3291 10.1116 10.2602 10.0842 10.1961C10.0568 10.132 10.0168 10.0742 9.96644 10.026C9.9161 9.97783 9.85652 9.94035 9.79131 9.91583C9.72609 9.89131 9.65659 9.88025 9.58698 9.88331H4.43098C4.36137 9.88025 4.29187 9.89131 4.22665 9.91583C4.16144 9.94035 4.10186 9.97783 4.05153 10.026C4.00119 10.0742 3.96112 10.132 3.93375 10.1961C3.90638 10.2602 3.89227 10.3291 3.89227 10.3988C3.89227 10.4685 3.90638 10.5374 3.93375 10.6015C3.96112 10.6656 4.00119 10.7234 4.05153 10.7716C4.10186 10.8198 4.16144 10.8573 4.22665 10.8818C4.29187 10.9063 4.36137 10.9174 4.43098 10.9143Z" fill="currentColor"/>
</g>
</svg>
