<svg width="56" height="56" viewBox="0 0 65 64" fill="none" xmlns="http://www.w3.org/2000/svg">
<g clip-path="url(#clip0_2764_319570)">
<rect x="2.57031" y="52.4688" width="39.334" height="14.3033" rx="7.15163" transform="rotate(-45 2.57031 52.4688)" fill="url(#paint0_linear_2764_319570)"/>
<g filter="url(#filter0_b_2764_319570)">
<path d="M54.3635 46.5435C44.4891 56.4178 28.3188 56.2569 18.2459 46.1841C8.17311 36.1113 8.01221 19.9409 17.8865 10.0666C27.7609 0.192234 43.9313 0.353136 54.0041 10.426C64.0769 20.4988 64.2378 36.6692 54.3635 46.5435Z" fill="#6AE092" fill-opacity="0.6"/>
</g>
<g filter="url(#filter1_b_2764_319570)">
<path d="M20.9564 43.4782C29.1559 51.6778 42.5777 51.4753 50.9342 43.1188C59.2907 34.7623 59.4931 21.3406 51.2936 13.141C43.0941 4.94149 29.6723 5.14391 21.3158 13.5004C12.9593 21.8569 12.7568 35.2787 20.9564 43.4782Z" stroke="url(#paint1_linear_2764_319570)" stroke-width="2.44758"/>
</g>
</g>
<defs>
<filter id="filter0_b_2764_319570" x="-3.08991" y="-10.9102" width="78.4298" height="78.4298" filterUnits="userSpaceOnUse" color-interpolation-filters="sRGB">
<feFlood flood-opacity="0" result="BackgroundImageFix"/>
<feGaussianBlur in="BackgroundImageFix" stdDeviation="6.83793"/>
<feComposite in2="SourceAlpha" operator="in" result="effect1_backgroundBlur_2764_319570"/>
<feBlend mode="normal" in="SourceGraphic" in2="effect1_backgroundBlur_2764_319570" result="shape"/>
</filter>
<filter id="filter1_b_2764_319570" x="0.0272732" y="-7.79304" width="72.1955" height="72.2033" filterUnits="userSpaceOnUse" color-interpolation-filters="sRGB">
<feFlood flood-opacity="0" result="BackgroundImageFix"/>
<feGaussianBlur in="BackgroundImageFix" stdDeviation="6.83793"/>
<feComposite in2="SourceAlpha" operator="in" result="effect1_backgroundBlur_2764_319570"/>
<feBlend mode="normal" in="SourceGraphic" in2="effect1_backgroundBlur_2764_319570" result="shape"/>
</filter>
<linearGradient id="paint0_linear_2764_319570" x1="5.23657" y1="42.2752" x2="-14.5649" y2="72.3985" gradientUnits="userSpaceOnUse">
<stop stop-color="#75EDA1"/>
<stop offset="1" stop-color="#349256"/>
</linearGradient>
<linearGradient id="paint1_linear_2764_319570" x1="-1.11241" y1="7.82396" x2="56.973" y2="41.2051" gradientUnits="userSpaceOnUse">
<stop stop-color="white"/>
<stop offset="1" stop-color="white" stop-opacity="0"/>
</linearGradient>
<clipPath id="clip0_2764_319570">
<rect width="64" height="64" fill="white" transform="translate(0.667969)"/>
</clipPath>
</defs>
</svg>
