<svg width="56" height="56" viewBox="0 0 65 64" fill="none" xmlns="http://www.w3.org/2000/svg">
<g clip-path="url(#clip0_2764_319693)">
<path d="M34.0396 45.9798C38.8784 43.9598 53.2284 35.9341 53.8937 11.6084C53.9234 10.5205 53.3558 9.49235 52.4318 8.9174C40.2058 1.31013 24.7196 1.31013 12.4936 8.9174C11.5696 9.49235 11.002 10.5205 11.0317 11.6084C11.697 35.9341 26.047 43.9598 30.8858 45.9798C31.9062 46.4058 33.0192 46.4058 34.0396 45.9798Z" fill="url(#paint0_linear_2764_319693)"/>
<g filter="url(#filter0_b_2764_319693)">
<path d="M33.9321 58.8507C39.1408 56.9454 56.5143 48.6311 57.4588 22.2542C57.5086 20.8641 56.7536 19.5648 55.5458 18.8747C41.2458 10.7032 23.6906 10.7032 9.39057 18.8747C8.18284 19.5648 7.42779 20.8641 7.47758 22.2542C8.42214 48.6311 25.7956 56.9454 31.0043 58.8507C31.9606 59.2006 32.9758 59.2006 33.9321 58.8507Z" fill="#6AE092" fill-opacity="0.6"/>
<path d="M57.1531 22.2433C56.6834 35.3593 52.1321 43.963 47.0683 49.5233C41.9995 55.0891 36.4024 57.6214 33.827 58.5634C32.9386 58.8884 31.9979 58.8884 31.1094 58.5634C28.5341 57.6214 22.9369 55.0891 17.8681 49.5233C12.8043 43.963 8.25302 35.3593 7.78333 22.2433C7.73779 20.9717 8.42906 19.7765 9.54236 19.1404C23.7484 11.0226 41.188 11.0226 55.394 19.1404C56.5074 19.7765 57.1986 20.9717 57.1531 22.2433Z" stroke="url(#paint1_linear_2764_319693)" stroke-width="0.611895"/>
</g>
<path d="M30.5042 37.8276C30.5501 37.8735 30.6123 37.8992 30.6772 37.8992C30.7422 37.8992 30.8044 37.8735 30.8503 37.8276L41.4693 27.2086C42.421 26.2568 43.9641 26.2568 44.9159 27.2086C45.8676 28.1603 45.8676 29.7034 44.9159 30.6552L32.4005 43.1705C31.9435 43.6276 31.3236 43.8843 30.6772 43.8843C30.0309 43.8843 29.411 43.6276 28.9539 43.1705L21.8023 36.0189C20.8506 35.0671 20.8506 33.524 21.8023 32.5723C22.7541 31.6205 24.2972 31.6205 25.2489 32.5723L30.5042 37.8276Z" fill="url(#paint2_linear_2764_319693)" fill-opacity="0.9" stroke="url(#paint3_linear_2764_319693)" stroke-width="0.489516" stroke-linecap="round" stroke-linejoin="round"/>
</g>
<defs>
<filter id="filter0_b_2764_319693" x="-4.83108" y="0.442362" width="74.5997" height="70.9747" filterUnits="userSpaceOnUse" color-interpolation-filters="sRGB">
<feFlood flood-opacity="0" result="BackgroundImageFix"/>
<feGaussianBlur in="BackgroundImageFix" stdDeviation="6.15382"/>
<feComposite in2="SourceAlpha" operator="in" result="effect1_backgroundBlur_2764_319693"/>
<feBlend mode="normal" in="SourceGraphic" in2="effect1_backgroundBlur_2764_319693" result="shape"/>
</filter>
<linearGradient id="paint0_linear_2764_319693" x1="20.5511" y1="14.281" x2="67.1783" y2="49.3733" gradientUnits="userSpaceOnUse">
<stop stop-color="#75EDA1"/>
<stop offset="1" stop-color="#349256"/>
</linearGradient>
<linearGradient id="paint1_linear_2764_319693" x1="8.40286" y1="17.0653" x2="70.4646" y2="62.8323" gradientUnits="userSpaceOnUse">
<stop stop-color="white"/>
<stop offset="0.734375" stop-color="white" stop-opacity="0"/>
</linearGradient>
<linearGradient id="paint2_linear_2764_319693" x1="24.7554" y1="33.0668" x2="63.8665" y2="37.6891" gradientUnits="userSpaceOnUse">
<stop stop-color="white"/>
<stop offset="1" stop-color="white" stop-opacity="0"/>
</linearGradient>
<linearGradient id="paint3_linear_2764_319693" x1="21.5554" y1="28.8002" x2="37.5554" y2="34.1335" gradientUnits="userSpaceOnUse">
<stop stop-color="white"/>
<stop offset="1" stop-color="white" stop-opacity="0"/>
</linearGradient>
<clipPath id="clip0_2764_319693">
<rect width="64" height="64" fill="white" transform="translate(0.222656)"/>
</clipPath>
</defs>
</svg>
