<svg width="56" height="56" viewBox="0 0 65 64" fill="none" xmlns="http://www.w3.org/2000/svg">
<path fill-rule="evenodd" clip-rule="evenodd" d="M33.133 7.21413C27.2084 7.21413 22.4055 12.017 22.4055 17.9416V39.3965C22.4055 41.3713 20.8046 42.9723 18.8297 42.9723C16.8549 42.9723 15.2539 41.3713 15.2539 39.3965V17.9416C15.2539 8.06723 23.2586 0.0625 33.133 0.0625C43.0073 0.0625 51.0121 8.06723 51.0121 17.9416V39.3965C51.0121 41.3713 49.4111 42.9723 47.4362 42.9723C45.4614 42.9723 43.8604 41.3713 43.8604 39.3965V17.9416C43.8604 12.017 39.0576 7.21413 33.133 7.21413Z" fill="url(#paint0_linear_2764_319835)"/>
<g filter="url(#filter0_b_2764_319835)">
<rect x="8.10156" y="21.5234" width="50.0614" height="39.334" rx="9" fill="#F8B77B" fill-opacity="0.6"/>
<rect x="8.40925" y="21.8311" width="49.446" height="38.7186" rx="8.69231" stroke="url(#paint1_linear_2764_319835)" stroke-width="0.615382"/>
</g>
<path d="M31.2932 44.9135C31.3391 44.9594 31.4014 44.9852 31.4663 44.9852C31.5312 44.9852 31.5935 44.9594 31.6394 44.9135L42.2584 34.2945C43.2101 33.3428 44.7532 33.3428 45.7049 34.2945C46.6567 35.2463 46.6567 36.7893 45.7049 37.7411L33.1896 50.2564C32.7325 50.7135 32.1127 50.9703 31.4663 50.9703C30.8199 50.9703 30.2001 50.7135 29.743 50.2564L22.5914 43.1048C21.6396 42.1531 21.6396 40.61 22.5914 39.6582C23.5431 38.7065 25.0862 38.7065 26.038 39.6582L31.2932 44.9135Z" fill="url(#paint2_linear_2764_319835)" fill-opacity="0.9" stroke="url(#paint3_linear_2764_319835)" stroke-width="0.489516" stroke-linecap="round" stroke-linejoin="round"/>
<defs>
<filter id="filter0_b_2764_319835" x="-4.20608" y="9.2158" width="74.6778" height="63.9512" filterUnits="userSpaceOnUse" color-interpolation-filters="sRGB">
<feFlood flood-opacity="0" result="BackgroundImageFix"/>
<feGaussianBlur in="BackgroundImageFix" stdDeviation="6.15382"/>
<feComposite in2="SourceAlpha" operator="in" result="effect1_backgroundBlur_2764_319835"/>
<feBlend mode="normal" in="SourceGraphic" in2="effect1_backgroundBlur_2764_319835" result="shape"/>
</filter>
<linearGradient id="paint0_linear_2764_319835" x1="23.7777" y1="6.58961" x2="69.2343" y2="15.89" gradientUnits="userSpaceOnUse">
<stop stop-color="#FF9D43"/>
<stop offset="1" stop-color="#DF6B00"/>
</linearGradient>
<linearGradient id="paint1_linear_2764_319835" x1="5.59849" y1="24.333" x2="30.8378" y2="73.3932" gradientUnits="userSpaceOnUse">
<stop stop-color="white"/>
<stop offset="0.765625" stop-color="white" stop-opacity="0"/>
</linearGradient>
<linearGradient id="paint2_linear_2764_319835" x1="25.5444" y1="40.1528" x2="64.6555" y2="44.775" gradientUnits="userSpaceOnUse">
<stop stop-color="white"/>
<stop offset="1" stop-color="white" stop-opacity="0"/>
</linearGradient>
<linearGradient id="paint3_linear_2764_319835" x1="22.3444" y1="35.8861" x2="38.3444" y2="41.2194" gradientUnits="userSpaceOnUse">
<stop stop-color="white"/>
<stop offset="1" stop-color="white" stop-opacity="0"/>
</linearGradient>
</defs>
</svg>
