<svg width="56" height="56" viewBox="0 0 64 64" fill="none" xmlns="http://www.w3.org/2000/svg">
<g clip-path="url(#clip0_2764_319826)">
<path d="M5.33594 17.6743C5.33594 13.94 5.33594 12.0729 6.07419 10.6517C6.69631 9.45406 7.67281 8.47756 8.87043 7.85544C10.2916 7.11719 12.1588 7.11719 15.893 7.11719H27.2092C27.3101 7.11719 27.3606 7.11719 27.4094 7.11791C29.0381 7.14215 30.5994 7.77169 31.7894 8.88396C31.825 8.91727 31.8614 8.95228 31.9341 9.02229C32.0068 9.0923 32.0431 9.12731 32.0788 9.16062C33.2688 10.2729 34.8301 10.9024 36.4588 10.9267C36.5076 10.9274 36.558 10.9274 36.659 10.9274H48.1217C51.856 10.9274 53.7231 10.9274 55.1443 11.6656C56.3419 12.2878 57.3184 13.2643 57.9405 14.4619C58.6788 15.8831 58.6788 17.7502 58.6788 21.4845V51.3713C58.6788 53.2384 58.6788 54.172 58.3097 54.8826C57.9986 55.4814 57.5104 55.9696 56.9115 56.2807C56.2009 56.6498 55.2674 56.6498 53.4002 56.6498H14.8373C11.4765 56.6498 9.79606 56.6498 8.51698 55.9854C7.43912 55.4255 6.56027 54.5466 6.00036 53.4688C5.33594 52.1897 5.33594 50.5093 5.33594 47.1485V17.6743Z" fill="url(#paint0_linear_2764_319826)"/>
<g filter="url(#filter0_b_2764_319826)">
<path d="M18.6553 27.0657C19.5841 23.8768 20.0485 22.2824 21.2727 21.3638C22.4969 20.4453 24.1571 20.4453 27.4774 20.4453H54.9875C60.2166 20.4453 62.8311 20.4453 64.2088 22.1433C65.5866 23.8412 65.0479 26.3997 63.9707 31.5166L60.2156 49.3534C59.4805 52.845 59.113 54.5908 57.8488 55.6165C56.5847 56.6422 54.8006 56.6422 51.2324 56.6422H9.14844C11.1192 54.499 11.1192 52.3558 13.09 45.926C14.3049 41.9624 16.868 33.2023 18.6553 27.0657Z" fill="#B9DDFF" fill-opacity="0.6"/>
<path d="M18.949 27.1513C19.4155 25.5499 19.7584 24.3742 20.135 23.4824C20.5086 22.598 20.9034 22.0234 21.4563 21.6086C22.0093 21.1937 22.6712 20.9753 23.6245 20.864C24.5858 20.7517 25.81 20.7513 27.4774 20.7513H54.9875C57.6116 20.7513 59.5463 20.752 60.999 20.9604C62.4434 21.1676 63.352 21.5728 63.9712 22.336C64.5905 23.0993 64.7999 24.0718 64.7051 25.528C64.6097 26.9924 64.2119 28.8858 63.6713 31.4535L59.9162 49.2903C59.5471 51.0436 59.2754 52.3314 58.9411 53.3108C58.6094 54.2822 58.2268 54.9159 57.656 55.3789C57.0853 55.842 56.3865 56.0859 55.3675 56.2103C54.3403 56.3358 53.0242 56.3363 51.2324 56.3363H9.80937C10.5573 55.3778 10.9883 54.3628 11.4117 52.9812C11.6175 52.3099 11.8233 51.5459 12.0624 50.6581C12.1118 50.4746 12.1626 50.2858 12.2152 50.0915C12.5228 48.9543 12.8913 47.6184 13.3825 46.0157C14.5982 42.0495 17.1619 33.2871 18.949 27.1513Z" stroke="url(#paint1_linear_2764_319826)" stroke-width="0.611895"/>
</g>
<path d="M13.2018 12.8192C13.2018 11.9022 13.9452 11.1588 14.8621 11.1588H22.4825C23.3995 11.1588 24.1429 11.9022 24.1429 12.8192C24.1429 13.7361 23.3995 14.4795 22.4825 14.4795H14.8621C13.9452 14.4795 13.2018 13.7361 13.2018 12.8192Z" fill="url(#paint2_linear_2764_319826)" fill-opacity="0.9" stroke="url(#paint3_linear_2764_319826)" stroke-width="0.489516"/>
</g>
<defs>
<filter id="filter0_b_2764_319826" x="-3.96594" y="7.33093" width="82.1116" height="62.4241" filterUnits="userSpaceOnUse" color-interpolation-filters="sRGB">
<feFlood flood-opacity="0" result="BackgroundImageFix"/>
<feGaussianBlur in="BackgroundImageFix" stdDeviation="6.55719"/>
<feComposite in2="SourceAlpha" operator="in" result="effect1_backgroundBlur_2764_319826"/>
<feBlend mode="normal" in="SourceGraphic" in2="effect1_backgroundBlur_2764_319826" result="shape"/>
</filter>
<linearGradient id="paint0_linear_2764_319826" x1="20.7233" y1="17.9525" x2="60.9727" y2="32.8586" gradientUnits="userSpaceOnUse">
<stop stop-color="#7FC0FB"/>
<stop offset="1" stop-color="#4088F4"/>
</linearGradient>
<linearGradient id="paint1_linear_2764_319826" x1="6.29079" y1="23.0308" x2="26.4935" y2="71.7494" gradientUnits="userSpaceOnUse">
<stop stop-color="white"/>
<stop offset="0.765625" stop-color="white" stop-opacity="0"/>
</linearGradient>
<linearGradient id="paint2_linear_2764_319826" x1="12.0883" y1="10.6595" x2="27.7327" y2="15.2817" gradientUnits="userSpaceOnUse">
<stop stop-color="white"/>
<stop offset="1" stop-color="white" stop-opacity="0"/>
</linearGradient>
<linearGradient id="paint3_linear_2764_319826" x1="11.0216" y1="11.7261" x2="18.6723" y2="14.7243" gradientUnits="userSpaceOnUse">
<stop stop-color="white"/>
<stop offset="1" stop-color="white" stop-opacity="0"/>
</linearGradient>
<clipPath id="clip0_2764_319826">
<rect width="64" height="64" fill="white"/>
</clipPath>
</defs>
</svg>
