<svg width="81" height="81" viewBox="0 0 81 81" fill="none" xmlns="http://www.w3.org/2000/svg">
<rect x="1.49896" y="0.501035" width="79" height="79" rx="24.5" transform="rotate(0.118781 1.49896 0.501035)" fill="white" stroke="#EDEDED"/>
<g filter="url(#filter0_b_2894_116314)">
<path d="M19.002 42.6058C19.002 35.4313 19.002 31.844 20.9733 29.1891C21.0033 29.1488 21.0335 29.1087 21.064 29.0688C23.0752 26.4439 26.5245 25.4584 33.423 23.4874L35.7049 22.8355C38.4341 22.0557 39.7988 21.6658 41.1993 21.6658C42.5999 21.6658 43.9645 22.0557 46.6937 22.8355L48.9756 23.4874C55.8742 25.4584 59.3234 26.4439 61.3346 29.0688C61.3651 29.1087 61.3954 29.1488 61.4253 29.1891C63.3967 31.844 63.3967 35.4313 63.3967 42.6058V42.6058C63.3967 51.9206 63.3967 56.5779 60.5322 59.4954C60.4894 59.5389 60.4463 59.582 60.4027 59.6248C57.4853 62.4893 52.8279 62.4893 43.5132 62.4893H38.8854C29.5707 62.4893 24.9133 62.4893 21.9959 59.6248C21.9524 59.582 21.9092 59.5389 21.8665 59.4954C19.002 56.5779 19.002 51.9206 19.002 42.6058V42.6058Z" fill="url(#paint0_linear_2894_116314)"/>
</g>
<g filter="url(#filter1_b_2894_116314)">
<path fill-rule="evenodd" clip-rule="evenodd" d="M26.9294 14.9219C24.3024 14.9219 22.1729 17.8606 22.1729 21.4857V35.8507C31.4884 42.9176 36.3916 49.7682 41.1992 49.8033C46.1086 49.8391 50.9183 42.9112 60.2255 35.8507V21.4857C60.2255 17.8606 58.0959 14.9219 55.4689 14.9219H26.9294Z" fill="#B9DDFF" fill-opacity="0.6"/>
<path d="M22.4788 21.4857C22.4788 19.7306 22.9948 18.1541 23.8138 17.0239C24.633 15.8934 25.7384 15.2278 26.9294 15.2278H55.4689C56.6599 15.2278 57.7653 15.8934 58.5846 17.0239C59.4035 18.1541 59.9195 19.7306 59.9195 21.4857V35.699C56.6102 38.2195 53.8631 40.7255 51.4894 42.8908C50.56 43.7386 49.6878 44.5342 48.8616 45.258C47.3748 46.5604 46.0403 47.6278 44.7796 48.3673C43.5204 49.1059 42.3542 49.5058 41.2014 49.4974C40.0732 49.4891 38.9192 49.0811 37.6638 48.3388C36.4075 47.596 35.0699 46.5307 33.5772 45.233C32.7425 44.5074 31.8604 43.7098 30.9199 42.8595C28.5383 40.7063 25.783 38.2152 22.4788 35.699V21.4857Z" stroke="url(#paint1_linear_2894_116314)" stroke-width="0.611895"/>
</g>
<rect x="50.4672" y="24.6744" width="2.68154" height="18.5368" rx="1.34077" transform="rotate(90 50.4672 24.6744)" fill="url(#paint2_linear_2894_116314)" fill-opacity="0.9" stroke="url(#paint3_linear_2894_116314)" stroke-width="0.489516"/>
<rect x="50.4672" y="34.1901" width="2.68154" height="18.5368" rx="1.34077" transform="rotate(90 50.4672 34.1901)" fill="url(#paint4_linear_2894_116314)" fill-opacity="0.9" stroke="url(#paint5_linear_2894_116314)" stroke-width="0.489516"/>
<path fill-rule="evenodd" clip-rule="evenodd" d="M62.0075 32.4376C62.505 33.4381 62.8794 34.5076 63.1136 35.6247L42.1998 52.6172C41.6173 53.0905 40.7827 53.0905 40.2001 52.6172L19.2861 35.6246C19.5204 34.5074 19.8948 33.438 20.3922 32.4375L41.2 49.3438L62.0075 32.4376Z" fill="url(#paint6_linear_2894_116314)"/>
<defs>
<filter id="filter0_b_2894_116314" x="5.69668" y="8.35879" width="71.0051" height="67.4387" filterUnits="userSpaceOnUse" color-interpolation-filters="sRGB">
<feFlood flood-opacity="0" result="BackgroundImageFix"/>
<feGaussianBlur in="BackgroundImageFix" stdDeviation="6.65264"/>
<feComposite in2="SourceAlpha" operator="in" result="effect1_backgroundBlur_2894_116314"/>
<feBlend mode="normal" in="SourceGraphic" in2="effect1_backgroundBlur_2894_116314" result="shape"/>
</filter>
<filter id="filter1_b_2894_116314" x="8.86758" y="1.6166" width="64.6633" height="61.4934" filterUnits="userSpaceOnUse" color-interpolation-filters="sRGB">
<feFlood flood-opacity="0" result="BackgroundImageFix"/>
<feGaussianBlur in="BackgroundImageFix" stdDeviation="6.65264"/>
<feComposite in2="SourceAlpha" operator="in" result="effect1_backgroundBlur_2894_116314"/>
<feBlend mode="normal" in="SourceGraphic" in2="effect1_backgroundBlur_2894_116314" result="shape"/>
</filter>
<linearGradient id="paint0_linear_2894_116314" x1="31.8081" y1="30.2833" x2="65.3058" y2="42.689" gradientUnits="userSpaceOnUse">
<stop stop-color="#7FC0FB"/>
<stop offset="1" stop-color="#4088F4"/>
</linearGradient>
<linearGradient id="paint1_linear_2894_116314" x1="42.7847" y1="9.68966" x2="42.1191" y2="42.8136" gradientUnits="userSpaceOnUse">
<stop stop-color="white"/>
<stop offset="0.996024" stop-color="white" stop-opacity="0"/>
</linearGradient>
<linearGradient id="paint2_linear_2894_116314" x1="52.478" y1="46.4555" x2="52.478" y2="20.9155" gradientUnits="userSpaceOnUse">
<stop stop-color="white"/>
<stop offset="1" stop-color="white" stop-opacity="0"/>
</linearGradient>
<linearGradient id="paint3_linear_2894_116314" x1="44.4071" y1="49.8923" x2="58.1154" y2="20.7256" gradientUnits="userSpaceOnUse">
<stop stop-color="white"/>
<stop offset="1" stop-color="white" stop-opacity="0"/>
</linearGradient>
<linearGradient id="paint4_linear_2894_116314" x1="49.5863" y1="53.1333" x2="52.4241" y2="30.1158" gradientUnits="userSpaceOnUse">
<stop stop-color="white"/>
<stop offset="1" stop-color="white" stop-opacity="0"/>
</linearGradient>
<linearGradient id="paint5_linear_2894_116314" x1="46.2689" y1="54.1579" x2="57.3523" y2="34.3246" gradientUnits="userSpaceOnUse">
<stop stop-color="white"/>
<stop offset="1" stop-color="white" stop-opacity="0"/>
</linearGradient>
<linearGradient id="paint6_linear_2894_116314" x1="31.9287" y1="36.9295" x2="56.3681" y2="54.8673" gradientUnits="userSpaceOnUse">
<stop stop-color="#529EE3"/>
<stop offset="1" stop-color="#4088F4"/>
</linearGradient>
</defs>
</svg>
