<svg width="81" height="81" viewBox="0 0 81 81" fill="none" xmlns="http://www.w3.org/2000/svg">
<rect x="0.498973" y="0.501046" width="79" height="79" rx="24.5" transform="matrix(0.999998 0.00209384 -0.00205259 0.999998 1.00103 -0.0010437)" fill="white" stroke="#EDEDED"/>
<path d="M20.0392 44.3005C20.4244 42.3195 20.617 41.329 20.9029 40.4824C22.5282 35.6688 26.7436 32.1942 31.7789 31.5175C32.6645 31.3984 33.6735 31.3984 35.6916 31.3984H46.544C48.5621 31.3984 49.5712 31.3984 50.4567 31.5175C55.492 32.1942 59.7074 35.6688 61.3327 40.4824C61.6186 41.329 61.8112 42.3195 62.1964 44.3005V44.3005C62.3743 45.2155 62.4633 45.6731 62.4712 46.0463C62.517 48.2028 60.979 50.0687 58.8533 50.4354C58.4855 50.4989 58.0194 50.4989 57.0872 50.4989H25.1485C24.2162 50.4989 23.7501 50.4989 23.3823 50.4354C21.2566 50.0687 19.7186 48.2028 19.7644 46.0463C19.7723 45.6731 19.8613 45.2155 20.0392 44.3005V44.3005Z" fill="url(#paint0_linear_2894_116293)"/>
<g filter="url(#filter0_b_2894_116293)">
<ellipse cx="41.3911" cy="27.558" rx="12.058" ry="12.058" fill="#B9DDFF" fill-opacity="0.6"/>
<path d="M53.1432 27.558C53.1432 34.0486 47.8816 39.3101 41.3911 39.3101C34.9006 39.3101 29.639 34.0486 29.639 27.558C29.639 21.0675 34.9006 15.8059 41.3911 15.8059C47.8816 15.8059 53.1432 21.0675 53.1432 27.558Z" stroke="url(#paint1_linear_2894_116293)" stroke-width="0.611895"/>
</g>
<g filter="url(#filter1_b_2894_116293)">
<path d="M21.333 60.0187C21.333 62.8173 23.6017 65.0859 26.4002 65.0859L55.8953 65.0859C58.6938 65.0859 60.9625 62.8173 60.9625 60.0187V60.0187C60.9625 50.05 52.8804 41.9687 42.9117 41.9687C41.7293 41.9687 40.5662 41.9687 39.3838 41.9687C29.4151 41.9687 21.333 50.05 21.333 60.0187V60.0187Z" fill="#B9DDFF" fill-opacity="0.6"/>
<path d="M26.4002 64.78L55.8953 64.78C58.5248 64.78 60.6565 62.6483 60.6565 60.0187C60.6565 50.219 52.7115 42.2747 42.9117 42.2747L42.9048 42.2747L42.8978 42.2747L42.8909 42.2747L42.884 42.2747L42.8771 42.2747L42.8701 42.2747L42.8632 42.2747L42.8563 42.2747L42.8494 42.2747L42.8424 42.2747L42.8355 42.2747L42.8286 42.2747L42.8217 42.2747L42.8147 42.2747L42.8078 42.2747L42.8009 42.2747L42.794 42.2747L42.7871 42.2747L42.7801 42.2747L42.7732 42.2747L42.7663 42.2747L42.7594 42.2747L42.7525 42.2747L42.7455 42.2747L42.7386 42.2747L42.7317 42.2747L42.7248 42.2747L42.7179 42.2747L42.711 42.2747L42.704 42.2747L42.6971 42.2747L42.6902 42.2747L42.6833 42.2747L42.6764 42.2747L42.6695 42.2747L42.6626 42.2747L42.6556 42.2747L42.6487 42.2747L42.6418 42.2747L42.6349 42.2747L42.628 42.2747L42.6211 42.2747L42.6142 42.2747L42.6073 42.2747L42.6003 42.2747L42.5934 42.2747L42.5865 42.2747L42.5796 42.2747L42.5727 42.2747L42.5658 42.2747L42.5589 42.2747L42.552 42.2747L42.5451 42.2747L42.5382 42.2747L42.5313 42.2747L42.5244 42.2747L42.5174 42.2747L42.5105 42.2747L42.5036 42.2747L42.4967 42.2747L42.4898 42.2747L42.4829 42.2747L42.476 42.2747L42.4691 42.2747L42.4622 42.2747L42.4553 42.2747L42.4484 42.2747L42.4415 42.2747L42.4346 42.2747L42.4277 42.2747L42.4208 42.2747L42.4139 42.2747L42.407 42.2747L42.4001 42.2747L42.3932 42.2747L42.3863 42.2747L42.3794 42.2747L42.3725 42.2747L42.3656 42.2747L42.3587 42.2747L42.3518 42.2747L42.3449 42.2747L42.338 42.2747L42.3311 42.2747L42.3242 42.2747L42.3173 42.2747L42.3104 42.2747L42.3035 42.2747L42.2966 42.2747L42.2897 42.2747L42.2828 42.2747L42.2759 42.2747L42.2691 42.2747L42.2622 42.2747L42.2553 42.2747L42.2484 42.2747L42.2415 42.2747L42.2346 42.2747L42.2277 42.2747L42.2208 42.2747L42.2139 42.2747L42.207 42.2747L42.2001 42.2747L42.1932 42.2747L42.1863 42.2747L42.1794 42.2747L42.1726 42.2747L42.1657 42.2747L42.1588 42.2747L42.1519 42.2747L42.145 42.2747L42.1381 42.2747L42.1312 42.2747L42.1243 42.2747L42.1174 42.2747L42.1105 42.2747L42.1037 42.2747L42.0968 42.2747L42.0899 42.2747L42.083 42.2747L42.0761 42.2747L42.0692 42.2747L42.0623 42.2747L42.0554 42.2747L42.0486 42.2747L42.0417 42.2747L42.0348 42.2747L42.0279 42.2747L42.021 42.2747L42.0141 42.2747L42.0072 42.2747L42.0004 42.2747L41.9935 42.2747L41.9866 42.2747L41.9797 42.2747L41.9728 42.2747L41.9659 42.2747L41.9591 42.2747L41.9522 42.2747L41.9453 42.2747L41.9384 42.2747L41.9315 42.2747L41.9246 42.2747L41.9178 42.2747L41.9109 42.2747L41.904 42.2747L41.8971 42.2747L41.8902 42.2747L41.8834 42.2747L41.8765 42.2747L41.8696 42.2747L41.8627 42.2747L41.8558 42.2747L41.8489 42.2747L41.8421 42.2747L41.8352 42.2747L41.8283 42.2747L41.8214 42.2747L41.8145 42.2747L41.8077 42.2747L41.8008 42.2747L41.7939 42.2747L41.787 42.2747L41.7801 42.2747L41.7733 42.2747L41.7664 42.2747L41.7595 42.2747L41.7526 42.2747L41.7458 42.2747L41.7389 42.2747L41.732 42.2747L41.7251 42.2747L41.7182 42.2747L41.7114 42.2747L41.7045 42.2747L41.6976 42.2747L41.6907 42.2747L41.6839 42.2747L41.677 42.2747L41.6701 42.2747L41.6632 42.2747L41.6564 42.2747L41.6495 42.2747L41.6426 42.2747L41.6357 42.2747L41.6289 42.2747L41.622 42.2747L41.6151 42.2747L41.6082 42.2747L41.6014 42.2747L41.5945 42.2747L41.5876 42.2747L41.5807 42.2747L41.5739 42.2747L41.567 42.2747L41.5601 42.2747L41.5532 42.2747L41.5464 42.2747L41.5395 42.2747L41.5326 42.2747L41.5257 42.2747L41.5189 42.2747L41.512 42.2747L41.5051 42.2747L41.4982 42.2747L41.4914 42.2747L41.4845 42.2747L41.4776 42.2747L41.4707 42.2747L41.4639 42.2747L41.457 42.2747L41.4501 42.2747L41.4432 42.2747L41.4364 42.2747L41.4295 42.2747L41.4226 42.2747L41.4158 42.2747L41.4089 42.2747L41.402 42.2747L41.3951 42.2747L41.3883 42.2747L41.3814 42.2747L41.3745 42.2747L41.3676 42.2747L41.3608 42.2747L41.3539 42.2747L41.347 42.2747L41.3402 42.2747L41.3333 42.2747L41.3264 42.2747L41.3195 42.2747L41.3127 42.2747L41.3058 42.2747L41.2989 42.2747L41.2921 42.2747L41.2852 42.2747L41.2783 42.2747L41.2714 42.2747L41.2646 42.2747L41.2577 42.2747L41.2508 42.2747L41.244 42.2747L41.2371 42.2747L41.2302 42.2747L41.2233 42.2747L41.2165 42.2747L41.2096 42.2747L41.2027 42.2747L41.1959 42.2747L41.189 42.2747L41.1821 42.2747L41.1752 42.2747L41.1684 42.2747L41.1615 42.2747L41.1546 42.2747L41.1477 42.2747L41.1409 42.2747L41.134 42.2747L41.1271 42.2747L41.1203 42.2747L41.1134 42.2747L41.1065 42.2747L41.0996 42.2747L41.0928 42.2747L41.0859 42.2747L41.079 42.2747L41.0722 42.2747L41.0653 42.2747L41.0584 42.2747L41.0515 42.2747L41.0447 42.2747L41.0378 42.2747L41.0309 42.2747L41.0241 42.2747L41.0172 42.2747L41.0103 42.2747L41.0034 42.2747L40.9966 42.2747L40.9897 42.2747L40.9828 42.2747L40.976 42.2747L40.9691 42.2747L40.9622 42.2747L40.9553 42.2747L40.9485 42.2747L40.9416 42.2747L40.9347 42.2747L40.9279 42.2747L40.921 42.2747L40.9141 42.2747L40.9072 42.2747L40.9004 42.2747L40.8935 42.2747L40.8866 42.2747L40.8797 42.2747L40.8729 42.2747L40.866 42.2747L40.8591 42.2747L40.8523 42.2747L40.8454 42.2747L40.8385 42.2747L40.8316 42.2747L40.8248 42.2747L40.8179 42.2747L40.811 42.2747L40.8041 42.2747L40.7973 42.2747L40.7904 42.2747L40.7835 42.2747L40.7766 42.2747L40.7698 42.2747L40.7629 42.2747L40.756 42.2747L40.7491 42.2747L40.7423 42.2747L40.7354 42.2747L40.7285 42.2747L40.7216 42.2747L40.7148 42.2747L40.7079 42.2747L40.701 42.2747L40.6941 42.2747L40.6873 42.2747L40.6804 42.2747L40.6735 42.2747L40.6666 42.2747L40.6598 42.2747L40.6529 42.2747L40.646 42.2747L40.6391 42.2747L40.6323 42.2747L40.6254 42.2747L40.6185 42.2747L40.6116 42.2747L40.6048 42.2747L40.5979 42.2747L40.591 42.2747L40.5841 42.2747L40.5773 42.2747L40.5704 42.2747L40.5635 42.2747L40.5566 42.2747L40.5497 42.2747L40.5429 42.2747L40.536 42.2747L40.5291 42.2747L40.5222 42.2747L40.5154 42.2747L40.5085 42.2747L40.5016 42.2747L40.4947 42.2747L40.4878 42.2747L40.481 42.2747L40.4741 42.2747L40.4672 42.2747L40.4603 42.2747L40.4534 42.2747L40.4466 42.2747L40.4397 42.2747L40.4328 42.2747L40.4259 42.2747L40.419 42.2747L40.4121 42.2747L40.4053 42.2747L40.3984 42.2747L40.3915 42.2747L40.3846 42.2747L40.3777 42.2747L40.3709 42.2747L40.364 42.2747L40.3571 42.2747L40.3502 42.2747L40.3433 42.2747L40.3364 42.2747L40.3296 42.2747L40.3227 42.2747L40.3158 42.2747L40.3089 42.2747L40.302 42.2747L40.2951 42.2747L40.2883 42.2747L40.2814 42.2747L40.2745 42.2747L40.2676 42.2747L40.2607 42.2747L40.2538 42.2747L40.2469 42.2747L40.2401 42.2747L40.2332 42.2747L40.2263 42.2747L40.2194 42.2747L40.2125 42.2747L40.2056 42.2747L40.1987 42.2747L40.1918 42.2747L40.185 42.2747L40.1781 42.2747L40.1712 42.2747L40.1643 42.2747L40.1574 42.2747L40.1505 42.2747L40.1436 42.2747L40.1367 42.2747L40.1298 42.2747L40.1229 42.2747L40.1161 42.2747L40.1092 42.2747L40.1023 42.2747L40.0954 42.2747L40.0885 42.2747L40.0816 42.2747L40.0747 42.2747L40.0678 42.2747L40.0609 42.2747L40.054 42.2747L40.0471 42.2747L40.0402 42.2747L40.0333 42.2747L40.0264 42.2747L40.0196 42.2747L40.0127 42.2747L40.0058 42.2747L39.9989 42.2747L39.992 42.2747L39.9851 42.2747L39.9782 42.2747L39.9713 42.2747L39.9644 42.2747L39.9575 42.2747L39.9506 42.2747L39.9437 42.2747L39.9368 42.2747L39.9299 42.2747L39.923 42.2747L39.9161 42.2747L39.9092 42.2747L39.9023 42.2747L39.8954 42.2747L39.8885 42.2747L39.8816 42.2747L39.8747 42.2747L39.8678 42.2747L39.8609 42.2747L39.854 42.2747L39.8471 42.2747L39.8402 42.2747L39.8333 42.2747L39.8264 42.2747L39.8195 42.2747L39.8126 42.2747L39.8057 42.2747L39.7988 42.2747L39.7919 42.2747L39.785 42.2747L39.7781 42.2747L39.7711 42.2747L39.7642 42.2747L39.7573 42.2747L39.7504 42.2747L39.7435 42.2747L39.7366 42.2747L39.7297 42.2747L39.7228 42.2747L39.7159 42.2747L39.709 42.2747L39.7021 42.2747L39.6952 42.2747L39.6882 42.2747L39.6813 42.2747L39.6744 42.2747L39.6675 42.2747L39.6606 42.2747L39.6537 42.2747L39.6468 42.2747L39.6399 42.2747L39.633 42.2747L39.626 42.2747L39.6191 42.2747L39.6122 42.2747L39.6053 42.2747L39.5984 42.2747L39.5915 42.2747L39.5845 42.2747L39.5776 42.2747L39.5707 42.2747L39.5638 42.2747L39.5569 42.2747L39.55 42.2747L39.543 42.2747L39.5361 42.2747L39.5292 42.2747L39.5223 42.2747L39.5154 42.2747L39.5084 42.2747L39.5015 42.2747L39.4946 42.2747L39.4877 42.2747L39.4808 42.2747L39.4738 42.2747L39.4669 42.2747L39.46 42.2747L39.4531 42.2747L39.4461 42.2747L39.4392 42.2747L39.4323 42.2747L39.4254 42.2747L39.4184 42.2747L39.4115 42.2747L39.4046 42.2747L39.3977 42.2747L39.3907 42.2747L39.3838 42.2747C29.584 42.2747 21.639 50.219 21.639 60.0187C21.639 62.6483 23.7706 64.78 26.4002 64.78Z" stroke="url(#paint2_linear_2894_116293)" stroke-width="0.611895"/>
</g>
<defs>
<filter id="filter0_b_2894_116293" x="16.6846" y="2.85155" width="49.4131" height="49.4141" filterUnits="userSpaceOnUse" color-interpolation-filters="sRGB">
<feFlood flood-opacity="0" result="BackgroundImageFix"/>
<feGaussianBlur in="BackgroundImageFix" stdDeviation="6.32423"/>
<feComposite in2="SourceAlpha" operator="in" result="effect1_backgroundBlur_2894_116293"/>
<feBlend mode="normal" in="SourceGraphic" in2="effect1_backgroundBlur_2894_116293" result="shape"/>
</filter>
<filter id="filter1_b_2894_116293" x="7.47638" y="28.1121" width="67.3431" height="50.8304" filterUnits="userSpaceOnUse" color-interpolation-filters="sRGB">
<feFlood flood-opacity="0" result="BackgroundImageFix"/>
<feGaussianBlur in="BackgroundImageFix" stdDeviation="6.92831"/>
<feComposite in2="SourceAlpha" operator="in" result="effect1_backgroundBlur_2894_116293"/>
<feBlend mode="normal" in="SourceGraphic" in2="effect1_backgroundBlur_2894_116293" result="shape"/>
</filter>
<linearGradient id="paint0_linear_2894_116293" x1="31.69" y1="35.5767" x2="54.9525" y2="54.2428" gradientUnits="userSpaceOnUse">
<stop stop-color="#80C0FC"/>
<stop offset="1" stop-color="#4990F5"/>
</linearGradient>
<linearGradient id="paint1_linear_2894_116293" x1="29.333" y1="20.0218" x2="40.92" y2="39.052" gradientUnits="userSpaceOnUse">
<stop stop-color="white"/>
<stop offset="0.99715" stop-color="white" stop-opacity="0"/>
</linearGradient>
<linearGradient id="paint2_linear_2894_116293" x1="23.1909" y1="44.0241" x2="62.2675" y2="62.0847" gradientUnits="userSpaceOnUse">
<stop stop-color="white"/>
<stop offset="1" stop-color="white" stop-opacity="0"/>
</linearGradient>
</defs>
</svg>
