<svg width="81" height="81" viewBox="0 0 81 81" fill="none" xmlns="http://www.w3.org/2000/svg">
<rect x="0.498973" y="0.501046" width="79" height="79" rx="24.5" transform="matrix(0.999998 0.00209384 -0.00205259 0.999998 1.00103 -0.00104373)" fill="white" stroke="#EDEDED"/>
<path fill-rule="evenodd" clip-rule="evenodd" d="M41.1996 19.6713C36.3396 19.6713 32.3998 23.6111 32.3998 28.4711V46.0708C32.3998 47.6908 31.0865 49.0041 29.4665 49.0041C27.8465 49.0041 26.5332 47.6908 26.5332 46.0708V28.4711C26.5332 20.3711 33.0996 13.8047 41.1996 13.8047C49.2997 13.8047 55.8661 20.3711 55.8661 28.4711V46.0708C55.8661 47.6908 54.5528 49.0041 52.9328 49.0041C51.3128 49.0041 49.9995 47.6908 49.9995 46.0708V28.4711C49.9995 23.6111 46.0597 19.6713 41.1996 19.6713Z" fill="url(#paint0_linear_2894_116300)"/>
<g filter="url(#filter0_b_2894_116300)">
<rect x="20.666" y="31.3984" width="41.066" height="32.2661" rx="10.46" fill="#FFB7B5" fill-opacity="0.6"/>
<rect x="20.9737" y="31.7061" width="40.4506" height="31.6508" rx="10.1523" stroke="url(#paint1_linear_2894_116300)" stroke-width="0.615382"/>
</g>
<g filter="url(#filter1_b_2894_116300)">
<rect x="47.0664" y="40.2031" width="17.5997" height="11.7331" rx="5.86657" transform="rotate(90 47.0664 40.2031)" fill="url(#paint2_linear_2894_116300)"/>
<rect x="46.8216" y="40.4479" width="17.1102" height="11.2436" rx="5.62181" transform="rotate(90 46.8216 40.4479)" stroke="url(#paint3_linear_2894_116300)" stroke-width="0.489516"/>
</g>
<defs>
<filter id="filter0_b_2894_116300" x="8.35838" y="19.0908" width="65.6817" height="56.8809" filterUnits="userSpaceOnUse" color-interpolation-filters="sRGB">
<feFlood flood-opacity="0" result="BackgroundImageFix"/>
<feGaussianBlur in="BackgroundImageFix" stdDeviation="6.15382"/>
<feComposite in2="SourceAlpha" operator="in" result="effect1_backgroundBlur_2894_116300"/>
<feBlend mode="normal" in="SourceGraphic" in2="effect1_backgroundBlur_2894_116300" result="shape"/>
</filter>
<filter id="filter1_b_2894_116300" x="10.7177" y="15.5878" width="60.964" height="66.8321" filterUnits="userSpaceOnUse" color-interpolation-filters="sRGB">
<feFlood flood-opacity="0" result="BackgroundImageFix"/>
<feGaussianBlur in="BackgroundImageFix" stdDeviation="12.3076"/>
<feComposite in2="SourceAlpha" operator="in" result="effect1_backgroundBlur_2894_116300"/>
<feBlend mode="normal" in="SourceGraphic" in2="effect1_backgroundBlur_2894_116300" result="shape"/>
</filter>
<linearGradient id="paint0_linear_2894_116300" x1="33.5254" y1="19.159" x2="70.814" y2="26.7882" gradientUnits="userSpaceOnUse">
<stop stop-color="#FF6161"/>
<stop offset="1" stop-color="#F52828"/>
</linearGradient>
<linearGradient id="paint1_linear_2894_116300" x1="18.6127" y1="33.7032" x2="39.3168" y2="73.9478" gradientUnits="userSpaceOnUse">
<stop stop-color="white"/>
<stop offset="0.765625" stop-color="white" stop-opacity="0"/>
</linearGradient>
<linearGradient id="paint2_linear_2894_116300" x1="63.7836" y1="43.0607" x2="62.9086" y2="54.144" gradientUnits="userSpaceOnUse">
<stop stop-color="#F9FFFC"/>
<stop offset="1" stop-color="#F7FBFF" stop-opacity="0.28"/>
</linearGradient>
<linearGradient id="paint3_linear_2894_116300" x1="50.9503" y1="54.7274" x2="62.0336" y2="38.6857" gradientUnits="userSpaceOnUse">
<stop stop-color="white"/>
<stop offset="1" stop-color="white" stop-opacity="0"/>
</linearGradient>
</defs>
</svg>
